<svg width="22" height="20" viewBox="0 0 22 20" fill="none" xmlns="http://www.w3.org/2000/svg">
<path d="M3.98851 9.97241L5.98391 5.9816V4.9839H2.99081V5.9816H4.98621L2.99081 9.97241M7.97932 9.97241L9.97472 5.9816V4.9839H6.98161V5.9816H8.97702L6.98161 9.97241M11.9701 9.97241L13.9655 5.9816V4.9839H10.9724V5.9816H12.9678L10.9724 9.97241M19.9517 -0.00460815C18.8543 -0.00460815 17.9563 0.893323 17.9563 1.99079C17.9563 2.68919 18.3554 3.38758 18.954 3.68689V14.9609H15.9609V12.9655C16.5595 12.9655 16.9586 12.5664 16.9586 11.9678V2.9885C16.9586 2.38988 16.5595 1.99079 15.9609 1.99079H12.1697C11.3715 0.793553 9.97472 -0.00460815 8.47817 -0.00460815C6.98161 -0.00460815 5.58483 0.793553 4.78667 1.99079H0.995405C0.396784 1.99079 -0.00229645 2.38988 -0.00229645 2.9885V11.9678C-0.00229645 12.5664 0.396784 12.9655 0.995405 12.9655V19.9494H15.9609V16.9563H18.954C20.0515 16.9563 20.9494 16.0584 20.9494 14.9609V3.68689C21.5481 3.38758 21.9471 2.68919 21.9471 1.99079C21.9471 0.893323 21.0492 -0.00460815 19.9517 -0.00460815ZM11.9701 16.9563H4.98621V14.9609H11.9701V16.9563ZM14.9632 10.9701H1.99311V3.9862H14.9632V10.9701Z" fill="#0080FF"/>
</svg>
