<svg width="24" height="24" viewBox="0 0 24 24" fill="none" xmlns="http://www.w3.org/2000/svg">
<path d="M11.6062 4.79166L14.002 5.48333L16.6353 3.57083L12.8562 3.67916C12.8191 3.6808 12.7831 3.69231 12.752 3.7125L11.5562 4.4C11.519 4.42061 11.4888 4.4519 11.4696 4.48984C11.4504 4.52777 11.443 4.5706 11.4484 4.61279C11.4538 4.65497 11.4717 4.69457 11.4998 4.72646C11.5279 4.75835 11.565 4.78106 11.6062 4.79166Z" fill="#0080FF"/>
<path d="M23.3853 2.64999L20.7603 2.08332C20.5395 2.0354 20.311 2.03552 20.0903 2.08369C19.8696 2.13186 19.6618 2.22694 19.4811 2.36249L11.5519 8.12499L9.64778 8.04166C9.53871 8.03795 9.43124 8.06859 9.34053 8.12927C9.24981 8.18994 9.18045 8.27757 9.14223 8.37979C9.10402 8.48201 9.09887 8.59366 9.12753 8.69896C9.15619 8.80426 9.2172 8.8979 9.30195 8.96666L11.1561 10.4375C11.1866 10.4621 11.223 10.4785 11.2616 10.4851C11.3003 10.4916 11.34 10.4882 11.377 10.475C11.9061 10.2708 13.877 9.22499 16.2061 7.94582L16.6728 12.7417C16.6767 12.7832 16.692 12.8229 16.7168 12.8564C16.7417 12.8899 16.7752 12.916 16.8138 12.9319C16.8524 12.9477 16.8946 12.9528 16.9358 12.9464C16.977 12.9401 17.0158 12.9226 17.0478 12.8958L18.0894 12.0292C18.1465 11.9813 18.1848 11.9149 18.1978 11.8417L19.1853 6.30416C20.852 5.37916 22.4436 4.48332 23.5645 3.84999C23.6808 3.7867 23.7748 3.68918 23.8339 3.57065C23.8929 3.45212 23.9141 3.3183 23.8945 3.18733C23.875 3.05636 23.8156 2.93457 23.7245 2.83845C23.6334 2.74234 23.515 2.67655 23.3853 2.64999Z" fill="#0080FF"/>
<path d="M3.01 6C3.6 5.393 5.169 3 6.009 3C6.849 3 8.418 5.393 9.008 6M6.008 3.85V23M18.004 14.995C18.611 15.585 21.004 17.154 21.004 17.994C21.004 18.834 18.611 20.403 18.004 20.992M20.193 17.994H1" stroke="#0080FF" stroke-width="1.5" stroke-linecap="round" stroke-linejoin="round"/>
</svg>
