<svg width="24" height="24" viewBox="0 0 24 24" fill="none" xmlns="http://www.w3.org/2000/svg">
<g clip-path="url(#clip0_34_570)">
<g clip-path="url(#clip1_34_570)">
<path d="M2.99312 3.99081V21.9494C2.99312 23.0469 3.89105 23.9448 4.98852 23.9448H16.9609V21.9494H4.98852V3.99081H2.99312ZM18.9563 0H8.97933C7.88186 0 6.98392 0.897931 6.98392 1.9954V17.9586C6.98392 19.0561 7.88186 19.954 8.97933 19.954H18.9563C20.0538 19.954 20.9517 19.0561 20.9517 17.9586V1.9954C20.9517 0.897931 20.0538 0 18.9563 0ZM13.9678 14.9655L10.9747 9.97701L13.9678 4.98851L16.9609 9.97701L13.9678 14.9655Z" fill="#0080FF"/>
</g>
</g>
<defs>
<clipPath id="clip0_34_570">
<rect width="23.9448" height="23.9448" fill="white"/>
</clipPath>
<clipPath id="clip1_34_570">
<rect width="23.9448" height="23.9448" fill="white"/>
</clipPath>
</defs>
</svg>
