<svg width="24" height="24" viewBox="0 0 24 24" fill="none" xmlns="http://www.w3.org/2000/svg">
<path d="M23.6472 5.11076H18.4536V0.254398C19.6587 0.559965 20.7669 1.1655 21.675 2.01463C22.5831 2.86376 23.2615 3.92886 23.6472 5.11076ZM5.58013 0.254398V5.11076H0.330163C0.719887 3.92155 1.40657 2.85142 2.32524 2.00162C3.24391 1.15183 4.3642 0.550453 5.58013 0.254398ZM16.3357 0H7.69811V5.11076H16.3357V0ZM24 7.22875H0.0049655C-0.00165517 7.28937 -0.00165517 7.35053 0.0049655 7.41115V16.5875C0.00494944 18.5482 0.781772 20.429 2.16538 21.8182C3.54898 23.2075 5.42664 23.9919 7.38731 23.9998H16.5613C18.526 23.9967 20.4094 23.2147 21.7986 21.8252C23.1878 20.4358 23.9695 18.5523 23.9724 16.5875V7.41115C23.9883 7.35155 23.9975 7.29038 24 7.22875ZM16.4065 15.7967C16.2956 16.0057 16.1418 16.1889 15.9553 16.3343L11.7193 19.2983C11.4947 19.4551 11.2318 19.548 10.9585 19.5671H10.8169C10.5682 19.5708 10.3223 19.5136 10.1008 19.4004C9.8793 19.2872 9.68886 19.1216 9.5461 18.9179C9.3901 18.6839 9.3061 18.4079 9.3061 18.1259V12.5939C9.3049 12.3179 9.3829 12.0479 9.5329 11.8163C9.6889 11.6039 9.8917 11.4299 10.1257 11.3087C10.3657 11.2007 10.6249 11.1467 10.8877 11.1527C11.1409 11.1647 11.3881 11.2367 11.6077 11.3651L15.8401 13.9199C16.0472 14.0395 16.2207 14.2097 16.3443 14.4145C16.4679 14.6193 16.5376 14.8521 16.5469 15.0911C16.5661 15.3359 16.5169 15.5795 16.4053 15.7979" fill="#0080FF"/>
</svg>
