<svg width="24" height="24" viewBox="0 0 24 24" fill="none" xmlns="http://www.w3.org/2000/svg">
<path d="M4.36364 7.63636C5.52095 7.63636 6.63085 8.0961 7.44919 8.91444C8.26753 9.73278 8.72727 10.8427 8.72727 12C8.72727 13.1573 8.26753 14.2672 7.44919 15.0856C6.63085 15.9039 5.52095 16.3636 4.36364 16.3636C3.20633 16.3636 2.09642 15.9039 1.27808 15.0856C0.459739 14.2672 0 13.1573 0 12C0 10.8427 0.459739 9.73278 1.27808 8.91444C2.09642 8.0961 3.20633 7.63636 4.36364 7.63636ZM12 0C13.1573 0 14.2672 0.459739 15.0856 1.27808C15.9039 2.09642 16.3636 3.20633 16.3636 4.36364C16.3636 5.52095 15.9039 6.63085 15.0856 7.44919C14.2672 8.26753 13.1573 8.72727 12 8.72727C10.8427 8.72727 9.73278 8.26753 8.91444 7.44919C8.0961 6.63085 7.63636 5.52095 7.63636 4.36364C7.63636 3.20633 8.0961 2.09642 8.91444 1.27808C9.73278 0.459739 10.8427 0 12 0ZM12 15.2727C13.1573 15.2727 14.2672 15.7325 15.0856 16.5508C15.9039 17.3691 16.3636 18.4791 16.3636 19.6364C16.3636 20.7937 15.9039 21.9036 15.0856 22.7219C14.2672 23.5403 13.1573 24 12 24C10.8427 24 9.73278 23.5403 8.91444 22.7219C8.0961 21.9036 7.63636 20.7937 7.63636 19.6364C7.63636 18.4791 8.0961 17.3691 8.91444 16.5508C9.73278 15.7325 10.8427 15.2727 12 15.2727ZM19.6364 7.63636C20.7937 7.63636 21.9036 8.0961 22.7219 8.91444C23.5403 9.73278 24 10.8427 24 12C24 13.1573 23.5403 14.2672 22.7219 15.0856C21.9036 15.9039 20.7937 16.3636 19.6364 16.3636C18.4791 16.3636 17.3691 15.9039 16.5508 15.0856C15.7325 14.2672 15.2727 13.1573 15.2727 12C15.2727 10.8427 15.7325 9.73278 16.5508 8.91444C17.3691 8.0961 18.4791 7.63636 19.6364 7.63636ZM19.6364 9.81818C19.0577 9.81818 18.5028 10.0481 18.0936 10.4572C17.6844 10.8664 17.4545 11.4213 17.4545 12C17.4545 12.5787 17.6844 13.1336 18.0936 13.5428C18.5028 13.9519 19.0577 14.1818 19.6364 14.1818C20.215 14.1818 20.77 13.9519 21.1791 13.5428C21.5883 13.1336 21.8182 12.5787 21.8182 12C21.8182 11.4213 21.5883 10.8664 21.1791 10.4572C20.77 10.0481 20.215 9.81818 19.6364 9.81818ZM12 17.4545C11.4213 17.4545 10.8664 17.6844 10.4572 18.0936C10.0481 18.5028 9.81818 19.0577 9.81818 19.6364C9.81818 20.215 10.0481 20.77 10.4572 21.1791C10.8664 21.5883 11.4213 21.8182 12 21.8182C12.5787 21.8182 13.1336 21.5883 13.5428 21.1791C13.9519 20.77 14.1818 20.215 14.1818 19.6364C14.1818 19.0577 13.9519 18.5028 13.5428 18.0936C13.1336 17.6844 12.5787 17.4545 12 17.4545ZM12 2.18182C11.4213 2.18182 10.8664 2.41169 10.4572 2.82086C10.0481 3.23003 9.81818 3.78498 9.81818 4.36364C9.81818 4.94229 10.0481 5.49724 10.4572 5.90641C10.8664 6.31559 11.4213 6.54545 12 6.54545C12.5787 6.54545 13.1336 6.31559 13.5428 5.90641C13.9519 5.49724 14.1818 4.94229 14.1818 4.36364C14.1818 3.78498 13.9519 3.23003 13.5428 2.82086C13.1336 2.41169 12.5787 2.18182 12 2.18182Z" fill="#158AFF"/>
</svg>
