<svg width="24" height="18" viewBox="0 0 24 18" fill="none" xmlns="http://www.w3.org/2000/svg">
<path d="M5.2116 0.351567C5.32314 0.462982 5.41163 0.59529 5.472 0.740926C5.53237 0.886562 5.56344 1.04267 5.56344 1.20032C5.56344 1.35798 5.53237 1.51408 5.472 1.65972C5.41163 1.80535 5.32314 1.93766 5.2116 2.04908C3.41144 3.84954 2.40015 6.29131 2.40015 8.83733C2.40015 11.3833 3.41144 13.8251 5.2116 15.6256C5.32618 15.7362 5.41757 15.8686 5.48045 16.015C5.54332 16.1613 5.57641 16.3188 5.5778 16.4781C5.57918 16.6373 5.54883 16.7953 5.48851 16.9427C5.42819 17.0902 5.33911 17.2241 5.22647 17.3368C5.11383 17.4494 4.97989 17.5385 4.83246 17.5988C4.68502 17.6591 4.52705 17.6895 4.36776 17.6881C4.20847 17.6867 4.05105 17.6536 3.90469 17.5907C3.75833 17.5279 3.62595 17.4365 3.51529 17.3219C-1.17176 12.636 -1.17176 5.03742 3.51529 0.351567C3.74026 0.126666 4.04534 0.000323775 4.36345 0.000323775C4.68155 0.000323775 4.98663 0.126666 5.2116 0.351567ZM20.4856 0.351567C25.1715 5.03862 25.1715 12.636 20.4856 17.3219C20.2607 17.547 19.9555 17.6735 19.6373 17.6736C19.319 17.6737 19.0138 17.5474 18.7887 17.3225C18.5636 17.0975 18.4371 16.7924 18.437 16.4742C18.4368 16.1559 18.5632 15.8507 18.7881 15.6256C20.5883 13.8251 21.5995 11.3833 21.5995 8.83733C21.5995 6.29131 20.5883 3.84954 18.7881 2.04908C18.563 1.82397 18.4365 1.51867 18.4365 1.20032C18.4365 0.881977 18.563 0.576671 18.7881 0.351567C19.0132 0.126463 19.3185 6.27534e-09 19.6369 0C19.9552 -6.27535e-09 20.2605 0.126463 20.4856 0.351567ZM8.77098 3.79938C8.99588 4.02434 9.12222 4.32943 9.12222 4.64753C9.12222 4.96564 8.99588 5.27072 8.77098 5.49569C8.33425 5.93238 7.98781 6.45081 7.75145 7.0214C7.51509 7.59198 7.39344 8.20353 7.39344 8.82113C7.39344 9.43873 7.51509 10.0503 7.75145 10.6209C7.98781 11.1915 8.33425 11.7099 8.77098 12.1466C8.88236 12.258 8.9707 12.3903 9.03095 12.5359C9.0912 12.6815 9.12218 12.8376 9.12212 12.9952C9.12206 13.1527 9.09097 13.3087 9.03062 13.4543C8.97027 13.5999 8.88184 13.7321 8.77038 13.8435C8.65892 13.9549 8.52661 14.0432 8.38101 14.1035C8.23541 14.1637 8.07937 14.1947 7.9218 14.1946C7.76423 14.1946 7.60821 14.1635 7.46265 14.1031C7.31709 14.0428 7.18485 13.9543 7.07347 13.8429C5.74164 12.511 4.99344 10.7046 4.99344 8.82113C4.99344 6.93762 5.74164 5.13124 7.07347 3.79938C7.18488 3.68784 7.31719 3.59935 7.46283 3.53898C7.60846 3.47861 7.76457 3.44753 7.92222 3.44753C8.07988 3.44753 8.23598 3.47861 8.38162 3.53898C8.52725 3.59935 8.65956 3.68784 8.77098 3.79938ZM17.1182 3.79938C18.45 5.13124 19.1982 6.93762 19.1982 8.82113C19.1982 10.7046 18.45 12.511 17.1182 13.8429C16.8919 14.0614 16.5889 14.1823 16.2743 14.1796C15.9598 14.1769 15.6589 14.0507 15.4365 13.8283C15.2141 13.6058 15.0879 13.305 15.0852 12.9904C15.0824 12.6759 15.2033 12.3728 15.4219 12.1466C15.8586 11.7099 16.205 11.1915 16.4414 10.6209C16.6778 10.0503 16.7994 9.43873 16.7994 8.82113C16.7994 8.20353 16.6778 7.59198 16.4414 7.0214C16.205 6.45081 15.8586 5.93238 15.4219 5.49569C15.2033 5.26943 15.0824 4.9664 15.0852 4.65185C15.0879 4.3373 15.2141 4.03642 15.4365 3.81399C15.6589 3.59156 15.9598 3.4654 16.2743 3.46266C16.5889 3.45993 16.8919 3.58085 17.1182 3.79938ZM12.0964 7.12242C12.5737 7.12242 13.0314 7.31201 13.3688 7.64948C13.7063 7.98694 13.8959 8.44465 13.8959 8.9219C13.8959 9.39916 13.7063 9.85686 13.3688 10.1943C13.0314 10.5318 12.5737 10.7214 12.0964 10.7214C11.6192 10.7214 11.1615 10.5318 10.824 10.1943C10.4865 9.85686 10.2969 9.39916 10.2969 8.9219C10.2969 8.44465 10.4865 7.98694 10.824 7.64948C11.1615 7.31201 11.6192 7.12242 12.0964 7.12242Z" fill="#0080FF"/>
</svg>
