<svg width="25" height="25" viewBox="0 0 25 25" fill="none" xmlns="http://www.w3.org/2000/svg">
<path d="M7.66669 2H20.7284C21.9778 2 23 3.02222 23 4.27161V19.037" stroke="#0080FF" stroke-width="2.55556" stroke-linecap="round"/>
<path d="M18.1728 4.55556H2.27161C1.02222 4.55556 0 5.57778 0 6.82716V22.7284C0 23.9778 1.02222 25 2.27161 25H18.1728C19.4222 25 20.4444 23.9778 20.4444 22.7284V6.82716C20.4444 5.57778 19.4222 4.55556 18.1728 4.55556ZM5.11111 21.5926C4.1684 21.5926 3.40741 20.8316 3.40741 19.8889C3.40741 18.9462 4.1684 18.1852 5.11111 18.1852C6.05383 18.1852 6.81482 18.9462 6.81482 19.8889C6.81482 20.8316 6.05383 21.5926 5.11111 21.5926ZM5.11111 11.3704C4.1684 11.3704 3.40741 10.6094 3.40741 9.66667C3.40741 8.72395 4.1684 7.96296 5.11111 7.96296C6.05383 7.96296 6.81482 8.72395 6.81482 9.66667C6.81482 10.6094 6.05383 11.3704 5.11111 11.3704ZM10.2222 16.4815C9.27951 16.4815 8.51852 15.7205 8.51852 14.7778C8.51852 13.8351 9.27951 13.0741 10.2222 13.0741C11.1649 13.0741 11.9259 13.8351 11.9259 14.7778C11.9259 15.7205 11.1649 16.4815 10.2222 16.4815ZM15.3333 21.5926C14.3906 21.5926 13.6296 20.8316 13.6296 19.8889C13.6296 18.9462 14.3906 18.1852 15.3333 18.1852C16.2761 18.1852 17.037 18.9462 17.037 19.8889C17.037 20.8316 16.2761 21.5926 15.3333 21.5926ZM15.3333 11.3704C14.3906 11.3704 13.6296 10.6094 13.6296 9.66667C13.6296 8.72395 14.3906 7.96296 15.3333 7.96296C16.2761 7.96296 17.037 8.72395 17.037 9.66667C17.037 10.6094 16.2761 11.3704 15.3333 11.3704Z" fill="#0080FF"/>
</svg>
