<svg width="23" height="17" viewBox="0 0 23 17" fill="none" xmlns="http://www.w3.org/2000/svg">
<path d="M9.7477 0.35723C10.2436 0.12202 10.7855 0 11.3343 0C11.8832 0 12.4251 0.12202 12.921 0.35723L22.1273 4.71861C22.2877 4.79452 22.4234 4.91407 22.519 5.06356C22.6146 5.21305 22.6661 5.38644 22.6677 5.56387C22.6692 5.74129 22.6208 5.91557 22.5279 6.06674C22.435 6.21791 22.3014 6.33985 22.1424 6.41859L12.9814 10.9632C12.4696 11.2175 11.9058 11.3498 11.3343 11.3498C10.7628 11.3498 10.1991 11.2175 9.68725 10.9632L1.89003 7.0948V11.3334C1.89003 11.5839 1.79053 11.8241 1.61341 12.0012C1.43629 12.1783 1.19607 12.2778 0.945596 12.2778C0.695117 12.2778 0.454897 12.1783 0.277782 12.0012C0.100667 11.8241 0.00116457 11.5839 0.00116457 11.3334V5.6196C-0.00811898 5.43281 0.0382656 5.24747 0.134439 5.08707C0.230612 4.92667 0.372243 4.79843 0.541379 4.71861L9.7477 0.35723ZM3.77889 10.1415V13.2223C3.77892 13.3465 3.80346 13.4695 3.8511 13.5843C3.89875 13.699 3.96857 13.8032 4.05655 13.8909L4.06033 13.8966L4.10377 13.9363L4.21711 14.042C4.31155 14.1302 4.44818 14.2479 4.62699 14.3953C4.98021 14.6843 5.4902 15.0658 6.12675 15.4492C7.39228 16.2067 9.21315 17 11.3343 17C13.4555 17 15.2783 16.2067 16.5419 15.4492C17.2218 15.0411 17.8618 14.57 18.4535 14.042L18.5668 13.9363L18.597 13.906L18.6084 13.8947L18.6102 13.8928L18.614 13.8909C18.7017 13.8031 18.7711 13.6988 18.8185 13.584C18.8658 13.4693 18.89 13.3464 18.8898 13.2223V10.1397L13.8201 12.6556C13.0476 13.0391 12.1968 13.2386 11.3343 13.2386C10.4719 13.2386 9.62113 13.0391 8.8486 12.6556L3.77889 10.1415Z" fill="#0180FF"/>
</svg>
