<svg width="23" height="23" viewBox="0 0 23 23" fill="none" xmlns="http://www.w3.org/2000/svg">
<path d="M23 11.4002C23 11.1363 22.8703 10.9042 22.6728 10.7587L22.677 10.7515L19.8961 9.14602L21.4968 6.37343L21.4914 6.37015C21.5419 6.25586 21.5648 6.13129 21.5582 6.00653C21.5516 5.88176 21.5158 5.7603 21.4535 5.65195C21.3907 5.54378 21.3033 5.45193 21.1984 5.38384C21.0934 5.31575 20.974 5.27334 20.8496 5.26004V5.25229H17.638V2.04991H17.6314C17.618 1.92569 17.5755 1.80638 17.5074 1.70161C17.4393 1.59685 17.3475 1.50957 17.2395 1.44684C17.131 1.3843 17.0093 1.34832 16.8843 1.34184C16.7592 1.33536 16.6344 1.35857 16.5201 1.40956L16.5162 1.4027L13.6885 3.03535L12.1226 0.323011L12.1169 0.326292C12.0432 0.225436 11.9467 0.143348 11.8354 0.0866643C11.7241 0.029981 11.6009 0.000292955 11.476 0C11.212 0 10.9797 0.129741 10.8344 0.327186L10.8273 0.323011L9.23549 3.08009L6.49452 1.49754L6.49124 1.50321C6.37695 1.45274 6.25239 1.42987 6.12762 1.43645C6.00286 1.44303 5.88139 1.47888 5.77304 1.54109C5.66482 1.60387 5.57291 1.69127 5.50477 1.7962C5.43662 1.90114 5.39417 2.02065 5.38083 2.14506H5.37278V5.32864H2.20769V5.3349C2.08347 5.34834 1.96415 5.39081 1.85939 5.45889C1.75462 5.52698 1.66735 5.61876 1.60462 5.72681C1.54236 5.83526 1.50651 5.95684 1.49998 6.08172C1.49345 6.2066 1.51642 6.33126 1.56704 6.44561L1.56018 6.44978L3.12483 9.16003L0.323011 10.7778L0.326292 10.7834C0.225436 10.8572 0.143348 10.9536 0.0866646 11.065C0.0299812 11.1763 0.000292955 11.2994 0 11.4244C0 11.6883 0.129741 11.9207 0.327187 12.0659L0.323011 12.0731L3.10395 13.6786L1.50321 16.4512L1.50858 16.4542C1.45811 16.5685 1.43524 16.693 1.44182 16.8178C1.4484 16.9426 1.48425 17.064 1.54646 17.1724C1.60927 17.2806 1.69669 17.3724 1.80162 17.4405C1.90655 17.5086 2.02605 17.551 2.15042 17.5643V17.5723H5.36175V20.7744H5.36831C5.39575 21.0178 5.53205 21.2457 5.76022 21.3775C5.86876 21.4398 5.99047 21.4756 6.11546 21.4821C6.24045 21.4886 6.3652 21.4655 6.47961 21.4148L6.48349 21.4216L9.31125 19.789L10.8771 22.5013L10.8828 22.498C10.9565 22.5989 11.053 22.681 11.1643 22.7377C11.2756 22.7943 11.3988 22.824 11.5237 22.8243C11.7877 22.8243 12.02 22.6946 12.1653 22.4974L12.1721 22.5013L13.7639 19.7442L16.5052 21.3268L16.5085 21.3211C16.6228 21.3716 16.7473 21.3945 16.8721 21.3879C16.9968 21.3813 17.1183 21.3455 17.2267 21.2832C17.3349 21.2205 17.4268 21.1331 17.4949 21.0281C17.5631 20.9232 17.6055 20.8037 17.6189 20.6793H17.6269V17.496H20.7923V17.4897C20.9165 17.4763 21.0358 17.4338 21.1406 17.3657C21.2454 17.2976 21.3327 17.2059 21.3954 17.0978C21.4577 16.9893 21.4936 16.8677 21.5001 16.7428C21.5066 16.6178 21.4836 16.4931 21.433 16.3787L21.4398 16.3748L19.8752 13.6646L22.677 12.0469L22.6737 12.0412C22.7746 11.9674 22.8567 11.871 22.9133 11.7596C22.97 11.6483 22.9997 11.5252 23 11.4002ZM9.62531 14.7989L6.68869 13.5014L7.98461 15.7458L7.25209 16.1687L5.26511 12.7278L6.01821 12.2926L8.86059 13.534L7.61238 11.3722L8.3452 10.9493L10.3316 14.3902L9.62531 14.7989ZM11.0128 13.9977L9.02612 10.5565L11.4614 9.15079L11.8336 9.79562L10.1309 10.7784L10.5478 11.5007L12.2142 10.5389L12.5864 11.1831L10.92 12.1456L11.3728 12.9297L13.0755 11.9469L13.4478 12.5918L11.0128 13.9977ZM16.6516 10.7423L14.6837 8.72786L15.4494 11.436L14.6706 11.8858L11.6985 9.01389L12.5187 8.54026L14.5582 10.6782L13.7776 7.81341L14.3503 7.48294L16.436 9.59429L15.6039 6.75907L16.4241 6.28544L17.4307 10.2928L16.6516 10.7423Z" fill="#0080FF"/>
</svg>
