<svg width="25" height="25" viewBox="0 0 25 25" fill="none" xmlns="http://www.w3.org/2000/svg">
<path d="M7.66667 1.9043H20.7284C21.9778 1.9043 23 2.92652 23 4.1759V18.9413" stroke="#0080FF" stroke-width="2.55556" stroke-linecap="round"/>
<path d="M18.1728 4.45996H2.27161C1.02222 4.45996 0 5.48218 0 6.73157V22.6328C0 23.8822 1.02222 24.9044 2.27161 24.9044H18.1728C19.4222 24.9044 20.4444 23.8822 20.4444 22.6328V6.73157C20.4444 5.48218 19.4222 4.45996 18.1728 4.45996ZM5.11111 21.497C4.1684 21.497 3.40741 20.736 3.40741 19.7933C3.40741 18.8506 4.1684 18.0896 5.11111 18.0896C6.05383 18.0896 6.81482 18.8506 6.81482 19.7933C6.81482 20.736 6.05383 21.497 5.11111 21.497ZM5.11111 11.2748C4.1684 11.2748 3.40741 10.5138 3.40741 9.57107C3.40741 8.62836 4.1684 7.86737 5.11111 7.86737C6.05383 7.86737 6.81482 8.62836 6.81482 9.57107C6.81482 10.5138 6.05383 11.2748 5.11111 11.2748ZM10.2222 16.3859C9.27951 16.3859 8.51852 15.6249 8.51852 14.6822C8.51852 13.7395 9.27951 12.9785 10.2222 12.9785C11.1649 12.9785 11.9259 13.7395 11.9259 14.6822C11.9259 15.6249 11.1649 16.3859 10.2222 16.3859ZM15.3333 21.497C14.3906 21.497 13.6296 20.736 13.6296 19.7933C13.6296 18.8506 14.3906 18.0896 15.3333 18.0896C16.2761 18.0896 17.037 18.8506 17.037 19.7933C17.037 20.736 16.2761 21.497 15.3333 21.497ZM15.3333 11.2748C14.3906 11.2748 13.6296 10.5138 13.6296 9.57107C13.6296 8.62836 14.3906 7.86737 15.3333 7.86737C16.2761 7.86737 17.037 8.62836 17.037 9.57107C17.037 10.5138 16.2761 11.2748 15.3333 11.2748Z" fill="#0080FF"/>
</svg>
