<svg width="31" height="32" viewBox="0 0 31 32" fill="none" xmlns="http://www.w3.org/2000/svg">
<g filter="url(#filter0_d_38_948)">
<mask id="path-1-inside-1_38_948" fill="white">
<path d="M26.6619 5.80211H21.6847V1.1481C22.8396 1.44093 23.9016 2.02124 24.7719 2.83498C25.6421 3.64873 26.2923 4.66945 26.6619 5.80211ZM9.34762 1.1481V5.80211H4.31641C4.68989 4.66245 5.34796 3.63691 6.22836 2.82252C7.10875 2.00813 8.18236 1.43181 9.34762 1.1481ZM19.655 0.904297H11.3774V5.80211H19.655V0.904297ZM27 7.83185H4.00476C3.99841 7.88994 3.99841 7.94855 4.00476 8.00665V16.8006C4.00474 18.6796 4.7492 20.4821 6.07515 21.8134C7.4011 23.1448 9.20053 23.8965 11.0795 23.9041H19.8712C21.7541 23.9011 23.559 23.1517 24.8904 21.8201C26.2217 20.4886 26.9708 18.6836 26.9735 16.8006V8.00665C26.9888 7.94953 26.9976 7.89091 27 7.83185ZM19.7229 16.0428C19.6166 16.2431 19.4693 16.4186 19.2905 16.558L15.231 19.3985C15.0158 19.5488 14.7638 19.6378 14.5019 19.6561H14.3662C14.1278 19.6596 13.8922 19.6048 13.6799 19.4963C13.4677 19.3879 13.2852 19.2291 13.1483 19.0339C12.9988 18.8097 12.9183 18.5452 12.9183 18.2749V12.9735C12.9172 12.709 12.9919 12.4502 13.1357 12.2283C13.2852 12.0247 13.4795 11.858 13.7038 11.7418C13.9338 11.6383 14.1822 11.5866 14.434 11.5923C14.6767 11.6038 14.9136 11.6728 15.124 11.7959L19.1801 14.2442C19.3786 14.3588 19.5448 14.5219 19.6633 14.7182C19.7817 14.9145 19.8485 15.1375 19.8574 15.3666C19.8758 15.6012 19.8286 15.8346 19.7217 16.0439"/>
</mask>
<path d="M26.6619 5.80211H21.6847V1.1481C22.8396 1.44093 23.9016 2.02124 24.7719 2.83498C25.6421 3.64873 26.2923 4.66945 26.6619 5.80211ZM9.34762 1.1481V5.80211H4.31641C4.68989 4.66245 5.34796 3.63691 6.22836 2.82252C7.10875 2.00813 8.18236 1.43181 9.34762 1.1481ZM19.655 0.904297H11.3774V5.80211H19.655V0.904297ZM27 7.83185H4.00476C3.99841 7.88994 3.99841 7.94855 4.00476 8.00665V16.8006C4.00474 18.6796 4.7492 20.4821 6.07515 21.8134C7.4011 23.1448 9.20053 23.8965 11.0795 23.9041H19.8712C21.7541 23.9011 23.559 23.1517 24.8904 21.8201C26.2217 20.4886 26.9708 18.6836 26.9735 16.8006V8.00665C26.9888 7.94953 26.9976 7.89091 27 7.83185ZM19.7229 16.0428C19.6166 16.2431 19.4693 16.4186 19.2905 16.558L15.231 19.3985C15.0158 19.5488 14.7638 19.6378 14.5019 19.6561H14.3662C14.1278 19.6596 13.8922 19.6048 13.6799 19.4963C13.4677 19.3879 13.2852 19.2291 13.1483 19.0339C12.9988 18.8097 12.9183 18.5452 12.9183 18.2749V12.9735C12.9172 12.709 12.9919 12.4502 13.1357 12.2283C13.2852 12.0247 13.4795 11.858 13.7038 11.7418C13.9338 11.6383 14.1822 11.5866 14.434 11.5923C14.6767 11.6038 14.9136 11.6728 15.124 11.7959L19.1801 14.2442C19.3786 14.3588 19.5448 14.5219 19.6633 14.7182C19.7817 14.9145 19.8485 15.1375 19.8574 15.3666C19.8758 15.6012 19.8286 15.8346 19.7217 16.0439" fill="#0080FF"/>
<path d="M26.6619 5.80211V6.80211H28.0401L27.6126 5.49191L26.6619 5.80211ZM21.6847 5.80211H20.6847V6.80211H21.6847V5.80211ZM21.6847 1.1481L21.9305 0.17877L20.6847 -0.137113V1.1481H21.6847ZM9.34762 1.1481H10.3476V-0.124601L9.11105 0.176481L9.34762 1.1481ZM9.34762 5.80211V6.80211H10.3476V5.80211H9.34762ZM4.31641 5.80211L3.36613 5.49069L2.93636 6.80211H4.31641V5.80211ZM19.655 0.904297H20.655V-0.0957031H19.655V0.904297ZM11.3774 0.904297V-0.0957031H10.3774V0.904297H11.3774ZM11.3774 5.80211H10.3774V6.80211H11.3774V5.80211ZM19.655 5.80211V6.80211H20.655V5.80211H19.655ZM27 7.83185L27.9992 7.87199L28.041 6.83185H27V7.83185ZM4.00476 7.83185V6.83185H3.10803L3.01067 7.72328L4.00476 7.83185ZM4.00476 8.00665H5.00476V7.9522L4.99885 7.89808L4.00476 8.00665ZM4.00476 16.8006L5.00476 16.8006V16.8006H4.00476ZM11.0795 23.9041L11.0755 24.9041H11.0795V23.9041ZM19.8712 23.9041L19.8712 24.9041L19.8728 24.9041L19.8712 23.9041ZM26.9735 16.8006L27.9735 16.8021V16.8006H26.9735ZM26.9735 8.00665L26.0072 7.74937L25.9735 7.87581V8.00665H26.9735ZM19.2905 16.558L19.8638 17.3773L19.8849 17.3625L19.9052 17.3467L19.2905 16.558ZM15.231 19.3985L15.8036 20.2183L15.8043 20.2178L15.231 19.3985ZM14.5019 19.6561V20.6561H14.5367L14.5714 20.6537L14.5019 19.6561ZM14.3662 19.6561V18.6561H14.3587L14.3513 18.6562L14.3662 19.6561ZM13.1483 19.0339L12.3163 19.5886L12.3227 19.5983L12.3294 19.6078L13.1483 19.0339ZM12.9183 12.9735L13.9184 12.9735L13.9183 12.9691L12.9183 12.9735ZM13.1357 12.2283L12.3297 11.6363L12.3123 11.66L12.2964 11.6847L13.1357 12.2283ZM13.7038 11.7418L13.2934 10.8299L13.2683 10.8412L13.2439 10.8539L13.7038 11.7418ZM14.434 11.5923L14.4814 10.5934L14.4691 10.5929L14.4569 10.5926L14.434 11.5923ZM15.124 11.7959L15.6409 10.9397L15.6288 10.9326L15.124 11.7959ZM19.1801 14.2442L18.6633 15.1003L18.6716 15.1053L18.68 15.1102L19.1801 14.2442ZM19.8574 15.3666L18.8582 15.4055L18.8589 15.4251L18.8605 15.4448L19.8574 15.3666ZM26.6619 4.80211H21.6847V6.80211H26.6619V4.80211ZM22.6847 5.80211V1.1481H20.6847V5.80211H22.6847ZM21.439 2.11742C22.4303 2.36878 23.3419 2.8669 24.0889 3.5654L25.4549 2.10456C24.4614 1.17557 23.249 0.513079 21.9305 0.17877L21.439 2.11742ZM24.0889 3.5654C24.8359 4.2639 25.394 5.14007 25.7112 6.11232L27.6126 5.49191C27.1906 4.19884 26.4484 3.03356 25.4549 2.10456L24.0889 3.5654ZM8.34762 1.1481V5.80211H10.3476V1.1481H8.34762ZM9.34762 4.80211H4.31641V6.80211H9.34762V4.80211ZM5.26668 6.11353C5.58718 5.13553 6.1519 4.25547 6.90741 3.55661L5.5493 2.08843C4.54402 3.01835 3.7926 4.18936 3.36613 5.49069L5.26668 6.11353ZM6.90741 3.55661C7.66292 2.85774 8.58423 2.36318 9.58419 2.11971L9.11105 0.176481C7.78049 0.500446 6.55459 1.15851 5.5493 2.08843L6.90741 3.55661ZM19.655 -0.0957031H11.3774V1.9043H19.655V-0.0957031ZM10.3774 0.904297V5.80211H12.3774V0.904297H10.3774ZM11.3774 6.80211H19.655V4.80211H11.3774V6.80211ZM20.655 5.80211V0.904297H18.655V5.80211H20.655ZM27 6.83185H4.00476V8.83185H27V6.83185ZM3.01067 7.72328C2.99644 7.85354 2.99644 7.98496 3.01067 8.11522L4.99885 7.89808C5.00038 7.91215 5.00038 7.92635 4.99885 7.94042L3.01067 7.72328ZM3.00476 8.00665V16.8006H5.00476V8.00665H3.00476ZM3.00476 16.8006C3.00474 18.9441 3.854 21.0003 5.36661 22.5191L6.78369 21.1078C5.6444 19.9638 5.00475 18.4151 5.00476 16.8006L3.00476 16.8006ZM5.36661 22.5191C6.87923 24.0379 8.93197 24.8955 11.0755 24.9041L11.0836 22.9041C9.46909 22.8976 7.92298 22.2517 6.78369 21.1078L5.36661 22.5191ZM11.0795 24.9041H19.8712V22.9041H11.0795V24.9041ZM19.8728 24.9041C22.0204 24.9007 24.0791 24.0459 25.5975 22.5272L24.1832 21.1131C23.039 22.2575 21.4878 22.9015 19.8696 22.9041L19.8728 24.9041ZM25.5975 22.5272C27.116 21.0085 27.9704 18.9497 27.9735 16.8021L25.9736 16.7992C25.9712 18.4174 25.3274 19.9687 24.1832 21.1131L25.5975 22.5272ZM27.9735 16.8006V8.00665H25.9735V16.8006H27.9735ZM27.9399 8.26393C27.974 8.13586 27.9939 8.00443 27.9992 7.87199L26.0008 7.79171C26.0014 7.7774 26.0035 7.7632 26.0072 7.74937L27.9399 8.26393ZM18.8395 15.5741C18.7992 15.65 18.7434 15.7165 18.6757 15.7693L19.9052 17.3467C20.1951 17.1207 20.434 16.8361 20.6062 16.5115L18.8395 15.5741ZM18.7171 15.7387L14.6577 18.5791L15.8043 20.2178L19.8638 17.3773L18.7171 15.7387ZM14.6583 18.5787C14.5917 18.6252 14.5136 18.6528 14.4324 18.6585L14.5714 20.6537C15.014 20.6228 15.4399 20.4724 15.8036 20.2183L14.6583 18.5787ZM14.5019 18.6561H14.3662V20.6561H14.5019V18.6561ZM14.3513 18.6562C14.2761 18.6573 14.2018 18.64 14.1349 18.6058L13.225 20.3869C13.5826 20.5696 13.9796 20.662 14.3811 20.656L14.3513 18.6562ZM14.1349 18.6058C14.0679 18.5716 14.0104 18.5216 13.9673 18.46L12.3294 19.6078C12.5599 19.9367 12.8674 20.2042 13.225 20.3869L14.1349 18.6058ZM13.9804 18.4792C13.94 18.4186 13.9183 18.347 13.9183 18.2749H11.9183C11.9183 18.7434 12.0577 19.2007 12.3163 19.5886L13.9804 18.4792ZM13.9183 18.2749V12.9735H11.9183V18.2749H13.9183ZM13.9183 12.9691C13.918 12.8961 13.9385 12.8283 13.975 12.7719L12.2964 11.6847C12.0454 12.0722 11.9164 12.5218 11.9184 12.9778L13.9183 12.9691ZM13.9417 12.8202C14.0007 12.7398 14.077 12.6747 14.1637 12.6298L13.2439 10.8539C12.8821 11.0412 12.5696 11.3096 12.3297 11.6363L13.9417 12.8202ZM14.1142 12.6537C14.2116 12.6099 14.3123 12.5898 14.4112 12.5921L14.4569 10.5926C14.0521 10.5833 13.656 10.6668 13.2934 10.8299L14.1142 12.6537ZM14.3867 12.5912C14.4713 12.5952 14.5508 12.6191 14.6193 12.6591L15.6288 10.9326C15.2764 10.7266 14.8821 10.6124 14.4814 10.5934L14.3867 12.5912ZM14.6073 12.652L18.6633 15.1003L19.6968 13.3881L15.6408 10.9398L14.6073 12.652ZM18.68 15.1102C18.7322 15.1403 18.7759 15.1832 18.8071 15.2349L20.5194 14.2015C20.3137 13.8606 20.025 13.5774 19.6801 13.3782L18.68 15.1102ZM18.8071 15.2349C18.8382 15.2865 18.8558 15.3452 18.8582 15.4055L20.8566 15.3277C20.8412 14.9299 20.7252 14.5424 20.5194 14.2015L18.8071 15.2349ZM18.8605 15.4448C18.8643 15.4938 18.8548 15.5428 18.8312 15.5889L20.6122 16.499C20.8025 16.1265 20.8873 15.7086 20.8543 15.2884L18.8605 15.4448Z" fill="black" mask="url(#path-1-inside-1_38_948)"/>
</g>
<defs>
<filter id="filter0_d_38_948" x="0" y="0.904297" width="31" height="31" filterUnits="userSpaceOnUse" color-interpolation-filters="sRGB">
<feFlood flood-opacity="0" result="BackgroundImageFix"/>
<feColorMatrix in="SourceAlpha" type="matrix" values="0 0 0 0 0 0 0 0 0 0 0 0 0 0 0 0 0 0 127 0" result="hardAlpha"/>
<feOffset dy="4"/>
<feGaussianBlur stdDeviation="2"/>
<feComposite in2="hardAlpha" operator="out"/>
<feColorMatrix type="matrix" values="0 0 0 0 0 0 0 0 0 0 0 0 0 0 0 0 0 0 0.25 0"/>
<feBlend mode="normal" in2="BackgroundImageFix" result="effect1_dropShadow_38_948"/>
<feBlend mode="normal" in="SourceGraphic" in2="effect1_dropShadow_38_948" result="shape"/>
</filter>
</defs>
</svg>
