<svg width="22" height="23" viewBox="0 0 22 23" fill="none" xmlns="http://www.w3.org/2000/svg">
<path d="M11.17 22.414L11.1573 22.4161L11.0825 22.453L11.0614 22.4573L11.0466 22.453L10.9718 22.4151C10.9605 22.4123 10.9521 22.4144 10.9465 22.4214L10.9422 22.432L10.9243 22.8832L10.9296 22.9043L10.9401 22.918L11.0498 22.996L11.0656 23.0003L11.0783 22.996L11.1879 22.918L11.2006 22.9012L11.2048 22.8832L11.1869 22.433C11.184 22.4218 11.1784 22.4154 11.17 22.414ZM11.4483 22.2949L11.4336 22.297L11.2396 22.3951L11.229 22.4056L11.2259 22.4172L11.2448 22.8706L11.2501 22.8832L11.2586 22.8917L11.4705 22.9887C11.4838 22.9922 11.494 22.9894 11.5011 22.9802L11.5053 22.9655L11.4694 22.3181C11.4659 22.3047 11.4589 22.297 11.4483 22.2949ZM10.6945 22.297C10.6898 22.2942 10.6843 22.2933 10.679 22.2944C10.6737 22.2956 10.669 22.2988 10.666 22.3033L10.6597 22.3181L10.6238 22.9655C10.6245 22.9781 10.6305 22.9866 10.6417 22.9908L10.6576 22.9887L10.8695 22.8906L10.88 22.8822L10.8832 22.8706L10.9022 22.4172L10.899 22.4045L10.8885 22.394L10.6945 22.297Z" fill="#0080FF"/>
<path d="M14.7612 5.27184C14.7612 6.67002 14.2057 8.01094 13.2171 8.9996C12.2284 9.98826 10.8875 10.5437 9.48932 10.5437C8.09114 10.5437 6.75022 9.98826 5.76156 8.9996C4.7729 8.01094 4.21747 6.67002 4.21747 5.27184C4.21747 3.87366 4.7729 2.53275 5.76156 1.54409C6.75022 0.555425 8.09114 0 9.48932 0C10.8875 0 12.2284 0.555425 13.2171 1.54409C14.2057 2.53275 14.7612 3.87366 14.7612 5.27184ZM9.48932 11.5981C12.0156 11.5981 14.3131 12.3298 16.0032 13.361C16.8467 13.8755 17.5679 14.4828 18.0888 15.1428C18.6012 15.7913 18.9786 16.5673 18.9786 17.3971C18.9786 18.288 18.5453 18.9902 17.9211 19.4911C17.3307 19.9655 16.5515 20.2797 15.7238 20.499C14.06 20.9387 11.8395 21.0874 9.48932 21.0874C7.13913 21.0874 4.91863 20.9398 3.25484 20.499C2.42716 20.2797 1.64798 19.9655 1.05753 19.4911C0.432291 18.9892 0 18.288 0 17.3971C0 16.5673 0.377464 15.7913 0.889887 15.1418C1.41075 14.4828 2.13088 13.8765 2.97543 13.3599C4.66558 12.3308 6.96411 11.5981 9.48932 11.5981ZM20.033 11.5981C20.3017 11.5984 20.5602 11.7013 20.7556 11.8857C20.951 12.0702 21.0686 12.3224 21.0844 12.5906C21.1001 12.8589 21.0129 13.1231 20.8404 13.3292C20.6679 13.5352 20.4232 13.6677 20.1564 13.6994L20.033 13.7068H18.9786C18.7099 13.7065 18.4514 13.6036 18.256 13.4191C18.0606 13.2346 17.943 12.9825 17.9273 12.7142C17.9115 12.4459 17.9988 12.1818 18.1713 11.9757C18.3438 11.7696 18.5884 11.6372 18.8553 11.6054L18.9786 11.5981H20.033ZM16.8699 9.48932C16.8699 9.20968 16.981 8.9415 17.1787 8.74377C17.3764 8.54603 17.6446 8.43495 17.9243 8.43495H20.033C20.3126 8.43495 20.5808 8.54603 20.7786 8.74377C20.9763 8.9415 21.0874 9.20968 21.0874 9.48932C21.0874 9.76895 20.9763 10.0371 20.7786 10.2349C20.5808 10.4326 20.3126 10.5437 20.033 10.5437H17.9243C17.6446 10.5437 17.3764 10.4326 17.1787 10.2349C16.981 10.0371 16.8699 9.76895 16.8699 9.48932ZM16.8699 5.27184C16.5903 5.27184 16.3221 5.38293 16.1243 5.58066C15.9266 5.77839 15.8155 6.04658 15.8155 6.32621C15.8155 6.60585 15.9266 6.87403 16.1243 7.07176C16.3221 7.2695 16.5903 7.38058 16.8699 7.38058H20.033C20.3126 7.38058 20.5808 7.2695 20.7786 7.07176C20.9763 6.87403 21.0874 6.60585 21.0874 6.32621C21.0874 6.04658 20.9763 5.77839 20.7786 5.58066C20.5808 5.38293 20.3126 5.27184 20.033 5.27184H16.8699Z" fill="#0080FF"/>
</svg>
