<svg width="23" height="23" viewBox="0 0 23 23" fill="none" xmlns="http://www.w3.org/2000/svg">
<path d="M22.7595 14.2049L20.2952 11.7406C20.1411 11.5866 19.9322 11.5001 19.7144 11.5001C19.4966 11.5001 19.2877 11.5866 19.1337 11.7406L11.5001 19.3742V23H15.1259L22.7595 15.3664C22.9135 15.2124 23 15.0035 23 14.7856C23 14.5678 22.9135 14.3589 22.7595 14.2049ZM14.4457 21.3571H13.143V20.0543L17.2501 15.9471L18.5529 17.2499L14.4457 21.3571ZM19.7144 16.0884L18.4116 14.7856L19.7144 13.4828L21.0172 14.7856L19.7144 16.0884ZM4.9286 11.4999H13.143V13.1428H4.9286V11.4999ZM4.9286 6.57129H14.7858V8.21416H4.9286V6.57129Z" fill="#0080FF"/>
<path d="M19.7144 1.64287C19.7144 1.20715 19.5414 0.789283 19.2333 0.481185C18.9252 0.173087 18.5073 0 18.0716 0H1.64288C1.20716 0 0.789289 0.173087 0.481192 0.481185C0.173094 0.789283 6.19857e-06 1.20715 6.19857e-06 1.64287V12.3215C-0.00191415 13.9598 0.442402 15.5676 1.28525 16.9724C2.1281 18.3772 3.33765 19.5259 4.78404 20.2952L9.03579 22.5623V20.7002L5.55783 18.8454C4.37467 18.2156 3.38521 17.2757 2.69553 16.1264C2.00585 14.9772 1.64196 13.6618 1.64288 12.3215V1.64287H18.0716V9.03578H19.7144V1.64287Z" fill="#0080FF"/>
</svg>
