<svg width="23" height="21" viewBox="0 0 23 21" fill="none" xmlns="http://www.w3.org/2000/svg">
<path d="M11.5 0C11.5 0 4.3861 6.141 0.41055 9.4668C0.283991 9.57698 0.182032 9.71255 0.1113 9.86472C0.040568 10.0169 0.0026465 10.1822 0 10.35C0 10.655 0.12116 10.9475 0.336827 11.1632C0.552494 11.3788 0.845001 11.5 1.15 11.5H3.45V19.55C3.45 19.855 3.57116 20.1475 3.78683 20.3632C4.00249 20.5788 4.295 20.7 4.6 20.7H8.05C8.355 20.7 8.64751 20.5788 8.86317 20.3632C9.07884 20.1475 9.2 19.855 9.2 19.55V14.95H13.8V19.55C13.8 19.855 13.9212 20.1475 14.1368 20.3632C14.3525 20.5788 14.645 20.7 14.95 20.7H18.4C18.705 20.7 18.9975 20.5788 19.2132 20.3632C19.4288 20.1475 19.55 19.855 19.55 19.55V11.5H21.85C22.155 11.5 22.4475 11.3788 22.6632 11.1632C22.8788 10.9475 23 10.655 23 10.35C22.9984 10.179 22.9579 10.0106 22.8816 9.85762C22.8053 9.70461 22.6952 9.57096 22.5595 9.4668C18.6116 6.141 11.5 0 11.5 0Z" fill="#0080FF"/>
</svg>
