<svg width="23" height="24" viewBox="0 0 23 24" fill="none" xmlns="http://www.w3.org/2000/svg">
<g clip-path="url(#clip0_38_941)">
<g clip-path="url(#clip1_38_941)">
<path d="M2.87502 4.73763V21.9876C2.87502 23.0418 3.73752 23.9043 4.79168 23.9043H16.2917V21.9876H4.79168V4.73763H2.87502ZM18.2083 0.904297H8.62502C7.57085 0.904297 6.70835 1.7668 6.70835 2.82096V18.1543C6.70835 19.2085 7.57085 20.071 8.62502 20.071H18.2083C19.2625 20.071 20.125 19.2085 20.125 18.1543V2.82096C20.125 1.7668 19.2625 0.904297 18.2083 0.904297ZM13.4167 15.2793L10.5417 10.4876L13.4167 5.69596L16.2917 10.4876L13.4167 15.2793Z" fill="#0080FF"/>
</g>
</g>
<defs>
<clipPath id="clip0_38_941">
<rect width="23" height="23" fill="white" transform="translate(0 0.904297)"/>
</clipPath>
<clipPath id="clip1_38_941">
<rect width="23" height="23" fill="white" transform="translate(0 0.904297)"/>
</clipPath>
</defs>
</svg>
