<svg width="23" height="21" viewBox="0 0 23 21" fill="none" xmlns="http://www.w3.org/2000/svg">
<path d="M4.18182 10.4497L6.27273 6.26784V5.22239H3.13636V6.26784H5.22727L3.13636 10.4497M8.36364 10.4497L10.4545 6.26784V5.22239H7.31818V6.26784H9.40909L7.31818 10.4497M12.5455 10.4497L14.6364 6.26784V5.22239H11.5V6.26784H13.5909L11.5 10.4497M20.9091 -0.00488281C19.7591 -0.00488281 18.8182 0.936026 18.8182 2.08603C18.8182 2.81784 19.2364 3.54966 19.8636 3.8633V15.6769H16.7273V13.586C17.3545 13.586 17.7727 13.1678 17.7727 12.5406V3.13148C17.7727 2.50421 17.3545 2.08603 16.7273 2.08603H12.7545C11.9182 0.831481 10.4545 -0.00488281 8.88636 -0.00488281C7.31818 -0.00488281 5.85455 0.831481 5.01818 2.08603H1.04545C0.418182 2.08603 0 2.50421 0 3.13148V12.5406C0 13.1678 0.418182 13.586 1.04545 13.586V20.9042H16.7273V17.7678H19.8636C21.0136 17.7678 21.9545 16.8269 21.9545 15.6769V3.8633C22.5818 3.54966 23 2.81784 23 2.08603C23 0.936026 22.0591 -0.00488281 20.9091 -0.00488281ZM12.5455 17.7678H5.22727V15.6769H12.5455V17.7678ZM15.6818 11.4951H2.09091V4.17694H15.6818V11.4951Z" fill="#0080FF"/>
</svg>
