<svg width="33" height="34" viewBox="0 0 33 34" fill="none" xmlns="http://www.w3.org/2000/svg">
<path fill-rule="evenodd" clip-rule="evenodd" d="M0 16.5105C0 12.1344 1.73839 7.93759 4.83274 4.84324C7.92709 1.74889 12.1239 0.010498 16.5 0.010498C20.8761 0.010498 25.0729 1.74889 28.1673 4.84324C31.2616 7.93759 33 12.1344 33 16.5105C33 20.8866 31.2616 25.0834 28.1673 28.1778C25.0729 31.2721 20.8761 33.0105 16.5 33.0105C12.1239 33.0105 7.92709 31.2721 4.83274 28.1778C1.73839 25.0834 0 20.8866 0 16.5105ZM16.5 29.4748C14.7304 29.4749 12.9795 29.1128 11.3551 28.4107C9.73071 27.7086 8.26728 26.6813 7.05493 25.3922L7.71493 23.7375C7.77308 23.5917 7.86655 23.4626 7.98694 23.3618C8.10733 23.2611 8.25086 23.1918 8.40465 23.1603C8.55843 23.1287 8.71764 23.1359 8.86797 23.1811C9.01831 23.2263 9.15506 23.3081 9.26593 23.4193C9.44195 23.5956 9.65101 23.7355 9.88115 23.8309C10.1113 23.9264 10.358 23.9755 10.6071 23.9755C10.8563 23.9755 11.103 23.9264 11.3331 23.8309C11.5633 23.7355 11.7723 23.5956 11.9484 23.4193L11.9766 23.391C12.2649 23.1038 12.4552 22.733 12.5204 22.3313C12.5855 21.9297 12.5223 21.5177 12.3396 21.1541L12.21 20.8948C12.091 20.6546 12.0575 20.381 12.1149 20.1192C12.1723 19.8574 12.3173 19.6229 12.5259 19.4546L16.83 16.0108C17.0702 15.8188 17.2372 15.5503 17.3033 15.25C17.3694 14.9497 17.3304 14.6358 17.193 14.3608C17.1068 14.1885 17.0586 13.9997 17.0518 13.8072C17.045 13.6147 17.0796 13.4229 17.1534 13.245C17.2272 13.067 17.3383 12.907 17.4794 12.7758C17.6204 12.6446 17.788 12.5452 17.9709 12.4845L18.0369 12.4609C18.6568 12.2536 19.2201 11.9051 19.6824 11.4429C20.1446 10.9806 20.4931 10.4173 20.7004 9.79736L20.8701 9.29293C20.9727 8.98285 20.9873 8.65044 20.9124 8.33256C20.8375 8.01468 20.676 7.72376 20.4459 7.49207L17.1906 4.23686C16.9911 4.03716 16.829 3.80323 16.7121 3.54621C18.9132 3.58168 21.069 4.17703 22.9763 5.27615C24.8836 6.37526 26.4796 7.94195 27.6139 9.82854C28.7482 11.7151 29.3835 13.8595 29.4598 16.0595C29.5361 18.2595 29.0509 20.4427 28.05 22.4034H26.9044C26.2793 22.4032 25.6799 22.1548 25.2379 21.7127L24.4059 20.8806C24.1416 20.6161 23.8278 20.4062 23.4824 20.263C23.137 20.1198 22.7668 20.0461 22.3929 20.0461C22.0189 20.0461 21.6487 20.1198 21.3033 20.263C20.9579 20.4062 20.6441 20.6161 20.3799 20.8806L19.1282 22.1323C18.9491 22.312 18.7422 22.4617 18.5154 22.5754L17.7069 22.9761C17.3443 23.1586 17.0395 23.4381 16.8264 23.7835C16.6133 24.1289 16.5003 24.5267 16.5 24.9326V25.3498C16.5 26.3256 17.292 27.1176 18.2679 27.1176C18.509 27.1169 18.7477 27.1655 18.9694 27.2605C19.191 27.3555 19.3909 27.4948 19.5567 27.6699C19.7225 27.845 19.8508 28.0521 19.9335 28.2786C20.0163 28.5051 20.0519 28.7461 20.0381 28.9869C18.9137 29.3051 17.7281 29.4748 16.5 29.4748Z" fill="#158AFF"/>
</svg>
