<svg width="33" height="32" viewBox="0 0 33 32" fill="none" xmlns="http://www.w3.org/2000/svg">
<path d="M16.5 0.250977L13.45 7.56526C13.9143 7.41526 14.4 7.29383 14.8929 7.21526L16.5 3.99955L18.1071 7.21526C18.6 7.29383 19.0857 7.41526 19.55 7.56526L16.5 0.250977ZM10.3786 3.81098C9.21429 3.84312 8.06429 4.01455 6.97143 4.32098C8.08571 6.26526 8.88571 8.20098 9.42143 10.1153C10.1 9.40098 10.8857 8.79383 11.75 8.30812L11.9643 7.80098C11.4071 6.28669 10.8214 4.76526 10.3786 3.81098ZM22.6214 3.81098C22.1786 4.76526 21.5929 6.28669 21.0357 7.80098L21.25 8.30812C22.1143 8.79383 22.9 9.40098 23.5786 10.1153C24.1143 8.20098 24.9143 6.26526 26.0286 4.32098C24.9357 4.01455 23.7857 3.84312 22.6214 3.81098ZM5.72857 4.73669C4.55214 5.20098 3.47143 5.82955 2.55714 6.62955C3.57143 7.82955 4.3 9.34383 4.81429 10.6295C5.4 12.0938 5.69286 13.2795 5.69286 13.2795L6.03571 14.6367L4.78571 14.0081C3.83571 13.5367 2.59286 13.5367 1.64286 14.0081C0.692857 14.4867 0 15.3653 0 16.8653C0 18.3653 0.692857 19.2438 1.64286 19.7224C2.59286 20.1938 3.83571 20.1938 4.78571 19.7224L5.95714 19.1295L5.7 20.4224C5.7 20.4224 5.40714 21.8867 4.82143 23.6367C4.30714 25.1795 3.59286 26.9581 2.55 28.2438C3.45929 29.0367 4.53286 29.6653 5.7 30.1295C6.83571 27.5081 7.75714 24.8867 8.34286 22.2724C7.31429 20.7224 6.71429 18.8653 6.71429 16.8653C6.71429 14.8153 7.34286 12.9153 8.42143 11.3438C7.90714 9.16526 7.03571 6.96526 5.72857 4.73669ZM27.2714 4.73669C25.9643 6.96526 25.0929 9.16526 24.5786 11.3438C25.6571 12.9153 26.2857 14.8153 26.2857 16.8653C26.2857 18.8653 25.6857 20.7224 24.6571 22.2724C25.2429 24.8867 26.1643 27.5081 27.3 30.1295C28.4643 29.6653 29.5429 29.0367 30.45 28.2438C29.4071 26.9581 28.6929 25.1795 28.1786 23.6367C27.5929 21.8867 27.3 20.4224 27.3 20.4224L27.0429 19.1295L28.2143 19.7224C29.1643 20.1938 30.4071 20.1938 31.3571 19.7224C32.3071 19.2438 33 18.3653 33 16.8653C33 15.3653 32.3071 14.4867 31.3571 14.0081C30.4071 13.5367 29.1643 13.5367 28.2143 14.0081L26.9643 14.6367L27.3071 13.2795C27.3071 13.2795 27.6 12.0938 28.1857 10.6295C28.7 9.34383 29.4286 7.82955 30.4429 6.62955C29.5286 5.82955 28.45 5.20098 27.2714 4.73669ZM16.5 8.36526C11.8 8.36526 8 12.1653 8 16.8653C8 21.5653 11.8 25.3653 16.5 25.3653C21.2 25.3653 25 21.5653 25 16.8653C25 12.1653 21.2 8.36526 16.5 8.36526ZM10.1429 12.7938H16V13.4367C16 14.2224 15.6286 14.9295 15.1 15.4653C14.5643 15.9938 13.8571 16.3653 13.0714 16.3653C12.2857 16.3653 11.5786 15.9938 11.0429 15.4653C10.5143 14.9295 10.1429 14.2224 10.1429 13.4367V12.7938ZM17 12.7938H22.8571V13.4367C22.8571 14.2224 22.4857 14.9295 21.9571 15.4653C21.4214 15.9938 20.7143 16.3653 19.9286 16.3653C19.1429 16.3653 18.4357 15.9938 17.9 15.4653C17.3714 14.9295 17 14.2224 17 13.4367V12.7938ZM11.6143 14.0795C11.7 14.2438 11.8143 14.4081 11.9571 14.551C12.2786 14.8795 12.7143 15.0795 13.0714 15.0795C13.4286 15.0795 13.8643 14.8795 14.1857 14.551C14.3286 14.4081 14.4429 14.2438 14.5286 14.0795H11.6143ZM18.4714 14.0795C18.5571 14.2438 18.6714 14.4081 18.8143 14.551C19.1357 14.8795 19.5714 15.0795 19.9286 15.0795C20.2857 15.0795 20.7214 14.8795 21.0429 14.551C21.1857 14.4081 21.3 14.2438 21.3857 14.0795H18.4714ZM9.75 18.5153L16.5 19.6438L23.25 18.5153L23.7143 19.6867L16.5 24.4938L9.28572 19.6867L9.75 18.5153ZM12.4929 20.2795L16.5 22.951L20.5071 20.2795L16.5 20.9438L12.4929 20.2795ZM9.34286 23.5295C8.75 25.8938 7.91429 28.2295 6.92857 30.5438C8.03572 30.8581 9.2 31.0295 10.3714 31.0653C10.8786 29.9153 11.6214 27.7153 12.2643 25.6867C11.1571 25.1581 10.1643 24.4224 9.34286 23.5295ZM23.6571 23.5295C22.8357 24.4224 21.8429 25.1581 20.7357 25.6867C21.3786 27.7153 22.1214 29.9153 22.6286 31.0653C23.8 31.0295 24.9643 30.8581 26.0714 30.5438C25.0857 28.2295 24.25 25.8938 23.6571 23.5295ZM13.4643 26.1653C13.2357 26.8867 13 27.6224 12.7643 28.3295C13.0143 28.5724 13.3929 28.801 13.8929 28.9724C14.4571 29.1724 15.1429 29.2938 15.8571 29.3438V26.6295C15.0286 26.5724 14.2214 26.4153 13.4643 26.1653ZM19.5357 26.1653C18.7786 26.4153 17.9714 26.5724 17.1429 26.6295V29.3438C17.8571 29.2938 18.5429 29.1724 19.1071 28.9724C19.6071 28.801 19.9857 28.5724 20.2357 28.3295C20 27.6224 19.7643 26.8867 19.5357 26.1653Z" fill="#158AFF"/>
</svg>
