<svg width="33" height="33" viewBox="0 0 33 33" fill="none" xmlns="http://www.w3.org/2000/svg">
<path d="M6 10.5049C7.5913 10.5049 9.11742 11.137 10.2426 12.2622C11.3679 13.3875 12 14.9136 12 16.5049C12 18.0962 11.3679 19.6223 10.2426 20.7475C9.11742 21.8727 7.5913 22.5049 6 22.5049C4.4087 22.5049 2.88258 21.8727 1.75736 20.7475C0.632141 19.6223 0 18.0962 0 16.5049C0 14.9136 0.632141 13.3875 1.75736 12.2622C2.88258 11.137 4.4087 10.5049 6 10.5049ZM16.5 0.00488281C18.0913 0.00488281 19.6174 0.637024 20.7426 1.76224C21.8679 2.88746 22.5 4.41358 22.5 6.00488C22.5 7.59618 21.8679 9.12231 20.7426 10.2475C19.6174 11.3727 18.0913 12.0049 16.5 12.0049C14.9087 12.0049 13.3826 11.3727 12.2574 10.2475C11.1321 9.12231 10.5 7.59618 10.5 6.00488C10.5 4.41358 11.1321 2.88746 12.2574 1.76224C13.3826 0.637024 14.9087 0.00488281 16.5 0.00488281ZM16.5 21.0049C18.0913 21.0049 19.6174 21.637 20.7426 22.7622C21.8679 23.8875 22.5 25.4136 22.5 27.0049C22.5 28.5962 21.8679 30.1223 20.7426 31.2475C19.6174 32.3727 18.0913 33.0049 16.5 33.0049C14.9087 33.0049 13.3826 32.3727 12.2574 31.2475C11.1321 30.1223 10.5 28.5962 10.5 27.0049C10.5 25.4136 11.1321 23.8875 12.2574 22.7622C13.3826 21.637 14.9087 21.0049 16.5 21.0049ZM27 10.5049C28.5913 10.5049 30.1174 11.137 31.2426 12.2622C32.3679 13.3875 33 14.9136 33 16.5049C33 18.0962 32.3679 19.6223 31.2426 20.7475C30.1174 21.8727 28.5913 22.5049 27 22.5049C25.4087 22.5049 23.8826 21.8727 22.7574 20.7475C21.6321 19.6223 21 18.0962 21 16.5049C21 14.9136 21.6321 13.3875 22.7574 12.2622C23.8826 11.137 25.4087 10.5049 27 10.5049ZM27 13.5049C26.2044 13.5049 25.4413 13.821 24.8787 14.3836C24.3161 14.9462 24 15.7092 24 16.5049C24 17.3005 24.3161 18.0636 24.8787 18.6262C25.4413 19.1888 26.2044 19.5049 27 19.5049C27.7956 19.5049 28.5587 19.1888 29.1213 18.6262C29.6839 18.0636 30 17.3005 30 16.5049C30 15.7092 29.6839 14.9462 29.1213 14.3836C28.5587 13.821 27.7956 13.5049 27 13.5049ZM16.5 24.0049C15.7044 24.0049 14.9413 24.321 14.3787 24.8836C13.8161 25.4462 13.5 26.2092 13.5 27.0049C13.5 27.8005 13.8161 28.5636 14.3787 29.1262C14.9413 29.6888 15.7044 30.0049 16.5 30.0049C17.2956 30.0049 18.0587 29.6888 18.6213 29.1262C19.1839 28.5636 19.5 27.8005 19.5 27.0049C19.5 26.2092 19.1839 25.4462 18.6213 24.8836C18.0587 24.321 17.2956 24.0049 16.5 24.0049ZM16.5 3.00488C15.7044 3.00488 14.9413 3.32095 14.3787 3.88356C13.8161 4.44617 13.5 5.20923 13.5 6.00488C13.5 6.80053 13.8161 7.56359 14.3787 8.1262C14.9413 8.68881 15.7044 9.00488 16.5 9.00488C17.2956 9.00488 18.0587 8.68881 18.6213 8.1262C19.1839 7.56359 19.5 6.80053 19.5 6.00488C19.5 5.20923 19.1839 4.44617 18.6213 3.88356C18.0587 3.32095 17.2956 3.00488 16.5 3.00488Z" fill="#158AFF"/>
</svg>
