<svg width="33" height="33" viewBox="0 0 33 33" fill="none" xmlns="http://www.w3.org/2000/svg">
<g clip-path="url(#clip0_27_248)">
<path d="M4.125 5.50513V30.2551C4.125 31.7676 5.3625 33.0051 6.875 33.0051H23.375V30.2551H6.875V5.50513H4.125ZM26.125 0.00512695H12.375C10.8625 0.00512695 9.625 1.24263 9.625 2.75513V24.7551C9.625 26.2676 10.8625 27.5051 12.375 27.5051H26.125C27.6375 27.5051 28.875 26.2676 28.875 24.7551V2.75513C28.875 1.24263 27.6375 0.00512695 26.125 0.00512695ZM19.25 20.6301L15.125 13.7551L19.25 6.88013L23.375 13.7551L19.25 20.6301Z" fill="#0080FF"/>
</g>
<defs>
<clipPath id="clip0_27_248">
<rect width="33" height="33" fill="white" transform="translate(0 0.00512695)"/>
</clipPath>
</defs>
</svg>
