<svg width="33" height="33" viewBox="0 0 33 33" fill="none" xmlns="http://www.w3.org/2000/svg">
<path d="M32.8176 15.9582C32.6987 15.5638 32.4868 15.2037 32.1999 14.9081C31.9811 14.6715 31.6998 14.5017 31.3886 14.4181C31.541 14.659 31.6789 14.9369 31.7819 15.2334C31.8986 15.5368 31.9693 15.8573 31.994 16.195C32.0284 16.485 32.0284 16.778 31.994 17.068C31.9299 16.853 31.8312 16.6499 31.7016 16.4668C31.4461 16.1226 31.1055 15.8509 30.7133 15.6782C30.2783 15.4833 29.7866 15.4558 29.3326 15.6009C28.8786 15.746 28.4941 16.0536 28.2528 16.4647C28.1498 16.6335 28.0675 16.8161 28.0057 17.0124C25.572 12.9603 21.1925 10.2774 16.185 10.2774C15.9297 10.2774 15.6764 10.2843 15.4252 10.298C13.8717 10.3005 12.3259 10.5173 10.8316 10.9425C10.7039 10.0489 9.53031 8.23695 4.13574 8.23695L5.78294 13.405C4.74691 14.2421 3.87616 15.265 3.21537 16.4215L0.0177463 16.4729C0.0177463 16.4729 -0.332283 24.7089 2.07674 24.7089H3.1886C3.94667 25.9911 4.95921 27.1046 6.16385 27.9807L6.19474 32.9449H8.41845C11.1157 32.9449 12.3717 32.9449 12.3717 31.4007V30.5977C14.4488 30.9804 16.5787 30.9748 18.6537 30.5812L18.5487 31.4007C18.5487 32.9449 19.8253 32.9449 22.5432 32.9449H24.7257V28.0239C26.6551 26.684 28.0442 24.7008 28.644 22.4296C28.7613 22.374 28.8787 22.3802 28.9981 22.3802C29.1175 22.3802 29.2349 22.374 29.3523 22.3596C29.8691 22.2649 30.3406 22.0631 30.7503 21.7769C31.3041 21.3851 31.7279 20.8365 31.9672 20.2018C32.0249 20.0096 32.0681 19.8092 32.0969 19.6006L32.099 19.58C32.554 19.0405 32.8649 18.3652 32.9617 17.6219C33.044 17.0538 32.9933 16.4744 32.8134 15.9294L32.8176 15.9582ZM7.24483 15.9582C7.65439 15.9582 8.04717 16.1209 8.33677 16.4105C8.62638 16.7001 8.78907 17.0929 8.78907 17.5024C8.78907 17.912 8.62638 18.3048 8.33677 18.5944C8.04717 18.884 7.65439 19.0467 7.24483 19.0467C6.83527 19.0467 6.44248 18.884 6.15288 18.5944C5.86327 18.3048 5.70058 17.912 5.70058 17.5024C5.70058 17.0929 5.86327 16.7001 6.15288 16.4105C6.44248 16.1209 6.83527 15.9582 7.24483 15.9582ZM12.1246 14.4139C11.8922 14.4894 11.6404 14.4796 11.4145 14.3865C11.1885 14.2933 11.0031 14.1227 10.8913 13.9054C10.8563 13.7973 10.8446 13.6831 10.8569 13.5702C10.8693 13.4573 10.9055 13.3483 10.9631 13.2505C11.0207 13.1526 11.0984 13.068 11.1911 13.0024C11.2838 12.9368 11.3893 12.8915 11.5008 12.8697C12.8549 12.5444 14.2449 12.3922 15.6373 12.4167L15.8453 12.4147C17.2316 12.4174 18.5693 12.5766 19.8582 12.8923C20.1177 12.9418 20.3977 13.2671 20.3977 13.6583C20.3971 13.7415 20.3839 13.8241 20.3586 13.9033C20.2869 14.0371 20.1853 14.1526 20.0617 14.2408C19.9382 14.329 19.796 14.3875 19.6462 14.4119H19.3311C18.1809 14.1349 17.0016 13.9967 15.8185 14.0001H15.6352C14.3895 14.0001 13.1789 14.1504 12.0196 14.4345L12.1246 14.4139ZM30.0379 20.4468C29.7589 20.6467 29.4412 20.7862 29.1052 20.8565L28.8437 20.8586V19.9526C29.1834 20.21 29.6138 20.3644 30.0791 20.3644H30.1223L30.0379 20.4468ZM30.2026 19.0467C30.0112 19.0735 29.8163 19.0384 29.6463 18.9466C29.4762 18.8547 29.34 18.7108 29.2576 18.5361C29.162 18.3566 29.1122 18.1564 29.1125 17.9531C29.1129 17.7498 29.1634 17.5497 29.2596 17.3707C29.3569 17.2344 29.5011 17.1389 29.6645 17.1024C29.8279 17.066 29.999 17.0911 30.145 17.173C30.3316 17.2446 30.492 17.3711 30.6053 17.5358C30.7185 17.7005 30.7791 17.8956 30.7792 18.0954C30.8186 18.381 30.818 18.6728 30.7771 18.9581C30.5858 18.9943 30.3911 19.0095 30.1965 19.0034L30.2026 19.0467ZM16.4897 6.17796H14.4307V5.82793H14.9455V3.58362H14.4307L15.5632 2.45117H15.975V5.82793H16.4897V6.17796Z" fill="#0080FF"/>
<path d="M15.4602 1.54522C15.8659 1.54536 16.2677 1.62541 16.6425 1.78079C17.0172 1.93618 17.3578 2.16387 17.6445 2.45085C17.9313 2.73784 18.1588 3.0785 18.3139 3.45339C18.4691 3.82828 18.5489 4.23006 18.5487 4.63578C18.5486 5.0415 18.4685 5.44322 18.3132 5.81801C18.1578 6.1928 17.9301 6.53331 17.6431 6.8201C17.3561 7.10689 17.0154 7.33435 16.6406 7.48949C16.2657 7.64463 15.8639 7.72441 15.4582 7.72427C14.6388 7.724 13.8531 7.39824 13.2738 6.81865C12.6946 6.23905 12.3694 5.45311 12.3697 4.63372C12.3699 3.81433 12.6957 3.0286 13.2753 2.4494C13.8549 1.87019 14.6408 1.54495 15.4602 1.54522ZM15.4602 0.000976562C14.2315 0.000976563 13.0532 0.489068 12.1844 1.35788C11.3156 2.22668 10.8275 3.40504 10.8275 4.63372C10.8275 5.8624 11.3156 7.04076 12.1844 7.90956C13.0532 8.77837 14.2315 9.26646 15.4602 9.26646C16.6889 9.26646 17.8673 8.77837 18.7361 7.90956C19.6049 7.04076 20.093 5.8624 20.093 4.63372C20.093 3.40504 19.6049 2.22668 18.7361 1.35788C17.8673 0.489068 16.6889 0.000976563 15.4602 0.000976562Z" fill="#0080FF"/>
</svg>
