<svg width="33" height="26" viewBox="0 0 33 26" fill="none" xmlns="http://www.w3.org/2000/svg">
<path d="M7.76471 19.4223L11.6471 11.6576V9.71638H5.82353V11.6576H9.70588L5.82353 19.4223M15.5294 19.4223L19.4118 11.6576V9.71638H13.5882V11.6576H17.4706L13.5882 19.4223M23.2941 19.4223L27.1765 11.6576V9.71638H21.3529V11.6576H25.2353L21.3529 19.4223M31.0588 25.2458C32.2235 25.2458 33 24.4693 33 23.3046V5.83403C33 4.66932 32.2235 3.89285 31.0588 3.89285H23.6824C22.1294 1.56344 19.4118 0.010498 16.5 0.010498C13.5882 0.010498 10.8706 1.56344 9.31765 3.89285H1.94118C0.776471 3.89285 0 4.66932 0 5.83403V23.3046C0 24.4693 0.776471 25.2458 1.94118 25.2458H31.0588ZM29.1176 21.3634H3.88235V7.7752H29.1176V21.3634Z" fill="#158AFF"/>
</svg>
