<svg width="33" height="31" viewBox="0 0 33 31" fill="none" xmlns="http://www.w3.org/2000/svg">
<path d="M19.6687 0.130943C19.3031 0.13272 18.8877 0.169684 18.4098 0.234229C18.2796 1.08796 18.1383 1.95839 17.9999 2.84205C18.0084 2.83856 18.0161 2.83515 18.0248 2.83174L18.4975 4.02077C17.5812 4.38501 17.0194 4.74698 16.7642 5.01539C16.509 5.28374 16.5169 5.35944 16.5709 5.53673C16.6247 5.71394 16.8531 6.02992 17.28 6.37155C17.7069 6.71318 18.3079 7.08183 19.0101 7.45403L18.4108 8.58463C18.0297 8.38254 17.671 8.17952 17.3401 7.97245C17.234 9.22795 17.1816 10.4962 17.2187 11.7687C19.4681 12.1497 21.5188 12.4206 24.4764 11.1044C24.4422 11.1196 24.5371 11.0605 24.6235 10.8607C24.71 10.6609 24.7871 10.3568 24.8274 10.0191C24.9077 9.34417 24.835 8.52357 24.6568 8.04503L23.6968 5.69724L23.5638 3.96824L23.5635 3.96199C23.5333 3.43411 23.254 2.49252 22.8384 1.72772C22.423 0.962919 21.8453 0.421821 21.5459 0.357134C20.8611 0.209136 20.3099 0.127886 19.6687 0.130943ZM17.1011 0.301688C12.4557 0.836957 8.37642 2.72525 5.97063 8.17717C6.97634 8.64392 9.13127 9.0533 11.1776 9.19426C12.2817 9.27032 13.368 9.28347 14.259 9.23357C15.0292 9.19042 15.6748 9.0759 15.977 8.98015C16.0129 8.3374 16.0665 7.70062 16.1305 7.06918C15.767 6.72996 15.4837 6.36032 15.3464 5.90879C15.1677 5.32049 15.3642 4.63075 15.8369 4.13366C16.0424 3.91756 16.2919 3.71923 16.5911 3.53107C16.76 2.42506 16.9389 1.34592 17.1009 0.301688H17.1011ZM22.3791 3.9853C22.7257 5.02136 22.5823 5.33236 22.0532 6.36835L19.6351 4.44792L22.3791 3.98537L22.3791 3.9853ZM5.9579 9.5666C6.19604 11.1021 6.96518 12.5131 8.57432 13.5732C11.102 15.1862 13.636 15.6858 16.4141 15.9912C16.0217 14.084 15.8947 12.1876 15.9268 10.3271C15.472 10.4277 14.9418 10.4768 14.3305 10.511C13.3698 10.5648 12.2406 10.5501 11.0897 10.4707C9.21643 10.3416 7.32444 10.0817 5.9579 9.5666ZM17.2901 13.071C17.3839 14.2406 17.5619 15.4111 17.8539 16.576L18.0743 17.455L17.1724 17.3684C14.2733 17.0906 11.4761 16.6761 8.70078 15.1371C8.15826 15.8984 7.49277 16.6344 6.55971 17.2652L6.39735 17.3748H0V20.0699H23.3789C23.0655 19.064 22.6192 18.0934 21.979 17.1709C21.3668 16.2886 20.8903 15.3698 20.8138 14.3386C20.7891 14.0069 20.8114 13.6693 20.8805 13.3273C19.6011 13.4081 18.4356 13.2581 17.2901 13.071ZM0 21.3495V23.482H24.009C23.9449 22.7599 23.85 22.0477 23.7062 21.3495H0ZM0 24.7615V26.5254C1.01246 26.3118 2.2042 26.1452 3.78107 26.0093C4.07373 25.9841 4.34918 25.9725 4.60871 25.9745C5.38731 25.9802 6.02245 26.1067 6.54741 26.347C7.24738 26.6673 7.71604 27.2022 7.99214 27.7663C8.40798 28.616 8.49421 29.5299 8.611 30.2204H32.9831C33.0682 29.2978 32.8531 28.3761 31.8558 27.633C31.5395 27.3972 31.0636 27.198 30.0043 27.1621C28.945 27.1264 27.3388 27.2737 24.9171 27.7199L24.1764 27.8565L24.1616 27.1033C24.1462 26.317 24.1298 25.5352 24.093 24.7615H0ZM4.59634 27.2545C4.38238 27.2527 4.14787 27.262 3.8909 27.2841C2.19894 27.4299 1.00272 27.5993 0 27.8247V30.2204H7.2874C7.15547 29.506 7.0841 28.8217 6.84284 28.3287C6.66548 27.9663 6.44277 27.7062 6.01498 27.5104C5.69418 27.3635 5.23803 27.2598 4.59634 27.2545Z" fill="#158AFF"/>
</svg>
