<svg width="33" height="34" viewBox="0 0 33 34" fill="none" xmlns="http://www.w3.org/2000/svg">
<path d="M22.2746 0.00634769C23.1259 0.00625788 23.9667 0.194338 24.7367 0.557127C25.5068 0.919917 26.1872 1.44845 26.7292 2.10489C27.2711 2.76133 27.6613 3.52946 27.8717 4.3543C28.0821 5.17914 28.1076 6.0403 27.9464 6.87615L27.9216 6.98506C29.3573 7.46396 30.6124 8.3699 31.5191 9.58165C32.4258 10.7934 32.9408 12.2532 32.9952 13.7656C33.0496 15.2781 32.6407 16.771 31.8234 18.0448C31.0061 19.3185 29.8192 20.3122 28.4216 20.893L26.6295 31.6309C26.5655 32.0162 26.3668 32.3663 26.0689 32.6189C25.7709 32.8715 25.393 33.0103 25.0024 33.0104H7.99541C7.6048 33.0103 7.22691 32.8715 6.92898 32.6189C6.63104 32.3663 6.43237 32.0162 6.36831 31.6309L4.67025 21.4491C3.52819 21.3843 2.4438 20.926 1.60141 20.1522C0.759017 19.3783 0.210613 18.3366 0.0494127 17.2041C-0.111787 16.0716 0.124164 14.9182 0.717161 13.94C1.31016 12.9619 2.2236 12.2192 3.30223 11.8383L3.29728 11.5578C3.2971 9.88679 3.71982 8.24294 4.52608 6.77933C5.33234 5.31573 6.4959 4.07998 7.90838 3.18719C9.32087 2.2944 10.9363 1.77361 12.6043 1.67333C14.2723 1.57305 15.9385 1.89654 17.4478 2.61367C17.9731 1.81298 18.6893 1.15548 19.5319 0.700343C20.3745 0.245207 21.317 0.00672065 22.2746 0.00634769ZM14.8487 21.459H11.5483V29.71H14.8487V21.459ZM21.4495 21.459H18.1491V29.71H21.4495V21.459ZM25.575 18.1586C26.185 18.1586 26.7874 18.0233 27.3388 17.7626C27.8902 17.5018 28.3769 17.122 28.7639 16.6505C29.1509 16.179 29.4285 15.6276 29.5768 15.036C29.725 14.4443 29.7403 13.8271 29.6214 13.2289C29.5025 12.6306 29.2524 12.0662 28.8891 11.5762C28.5259 11.0862 28.0585 10.6828 27.5206 10.3952C26.9828 10.1075 26.3878 9.9427 25.7786 9.9126C25.1694 9.8825 24.5611 9.98787 23.9974 10.2211L23.7087 10.3548C22.9472 10.7472 22.063 10.8281 21.243 10.5805C20.4229 10.3329 19.7313 9.77621 19.3142 9.02802L19.1987 8.80194C18.6713 7.6541 17.8256 6.6817 16.762 6.00015C15.6985 5.31861 14.4617 4.95655 13.1985 4.95696C9.66377 4.95696 6.77756 7.73591 6.60594 11.1733L6.59769 11.4984L6.60264 11.7789C6.6143 12.4269 6.43493 13.064 6.08689 13.6107C5.73884 14.1574 5.23754 14.5896 4.6455 14.8532L4.39797 14.9506C4.03155 15.0811 3.72292 15.3367 3.52645 15.6723C3.32997 16.008 3.25825 16.4023 3.32392 16.7856C3.38959 17.169 3.58844 17.5169 3.88544 17.7681C4.18243 18.0192 4.55853 18.1575 4.94748 18.1586H25.575Z" fill="#158AFF"/>
</svg>
