<svg width="37" height="37" viewBox="0 0 37 37" fill="none" xmlns="http://www.w3.org/2000/svg">
<path fill-rule="evenodd" clip-rule="evenodd" d="M2.17049 26.916C1.91748 28.0074 1.94651 29.1452 2.25482 30.2223C2.56314 31.2993 3.1406 32.2802 3.93279 33.0724C4.72498 33.8645 5.70582 34.442 6.78289 34.7503C7.85995 35.0586 8.99779 35.0877 10.0892 34.8346L24.9367 31.3702C26.8231 30.9716 28.562 30.0577 29.9602 28.7301C31.3583 27.4025 32.361 25.7132 32.8567 23.85C33.3525 21.9867 33.3218 20.0225 32.7682 18.1756C32.2146 16.3288 31.1598 14.6716 29.7209 13.3882L23.4519 7.28425C22.1011 5.9436 20.4177 4.98664 18.5747 4.51162C16.7318 4.0366 14.7956 4.06064 12.965 4.58128C11.1344 5.10191 9.47529 6.10037 8.15812 7.47415C6.84095 8.84792 5.91313 10.5475 5.46994 12.3984L2.17049 26.916ZM19.8984 10.5051C19.0699 10.5051 18.3984 11.1767 18.3984 12.0051C18.3984 12.8336 19.0699 13.5051 19.8984 13.5051H19.9149C20.7433 13.5051 21.4149 12.8336 21.4149 12.0051C21.4149 11.1767 20.7433 10.5051 19.9149 10.5051H19.8984ZM13.2995 12.1549C12.471 12.1549 11.7995 12.8264 11.7995 13.6549C11.7995 14.4833 12.471 15.1549 13.2995 15.1549H13.316C14.1444 15.1549 14.816 14.4833 14.816 13.6549C14.816 12.8264 14.1444 12.1549 13.316 12.1549H13.2995ZM24.8475 15.4543C24.0191 15.4543 23.3475 16.1259 23.3475 16.9543C23.3475 17.7827 24.0191 18.4543 24.8475 18.4543H24.864C25.6925 18.4543 26.364 17.7827 26.364 16.9543C26.364 16.1259 25.6925 15.4543 24.864 15.4543H24.8475ZM18.2486 17.104C17.4202 17.104 16.7486 17.7756 16.7486 18.604C16.7486 19.4325 17.4202 20.104 18.2486 20.104H18.2651C19.0936 20.104 19.7651 19.4325 19.7651 18.604C19.7651 17.7756 19.0936 17.104 18.2651 17.104H18.2486ZM11.6497 18.7537C10.8213 18.7537 10.1497 19.4253 10.1497 20.2537C10.1497 21.0822 10.8213 21.7537 11.6497 21.7537H11.6662C12.4947 21.7537 13.1662 21.0822 13.1662 20.2537C13.1662 19.4253 12.4947 18.7537 11.6662 18.7537H11.6497ZM23.1978 22.0532C22.3694 22.0532 21.6978 22.7248 21.6978 23.5532C21.6978 24.3816 22.3694 25.0532 23.1978 25.0532H23.2143C24.0427 25.0532 24.7143 24.3816 24.7143 23.5532C24.7143 22.7248 24.0427 22.0532 23.2143 22.0532H23.1978ZM16.5989 23.7029C15.7705 23.7029 15.0989 24.3745 15.0989 25.2029C15.0989 26.0314 15.7705 26.7029 16.5989 26.7029H16.6154C17.4438 26.7029 18.1154 26.0314 18.1154 25.2029C18.1154 24.3745 17.4438 23.7029 16.6154 23.7029H16.5989ZM10 25.3526C9.17159 25.3526 8.50002 26.0242 8.50002 26.8526C8.50002 27.6811 9.17159 28.3526 10 28.3526H10.0165C10.8449 28.3526 11.5165 27.6811 11.5165 26.8526C11.5165 26.0242 10.8449 25.3526 10.0165 25.3526H10Z" fill="#0080FF"/>
<path d="M26.7514 10.2537L32.5254 4.47971M26.7514 10.2537V2.00513M26.7514 10.2537H35M2.17049 26.916C1.91748 28.0074 1.94651 29.1452 2.25482 30.2223C2.56314 31.2993 3.20782 32.7129 4.00002 33.5051C4.79221 34.2973 5.70582 34.442 6.78289 34.7503C7.85995 35.0586 8.99779 35.0877 10.0892 34.8346L24.9367 31.3702C26.8231 30.9716 28.562 30.0577 29.9602 28.7301C31.3583 27.4025 32.361 25.7132 32.8567 23.85C33.3525 21.9867 33.3218 20.0225 32.7682 18.1756C32.2146 16.3288 31.1598 14.6716 29.7209 13.3882L23.4519 7.28425C22.1011 5.9436 20.4177 4.98664 18.5747 4.51162C16.7318 4.0366 14.7956 4.06064 12.965 4.58128C11.1344 5.10191 9.47529 6.10037 8.15812 7.47415C6.84095 8.84792 5.91313 10.5475 5.46994 12.3984L2.17049 26.916Z" stroke="#0080FF" stroke-width="3" stroke-linecap="round" stroke-linejoin="round"/>
</svg>
