<svg width="33" height="26" viewBox="0 0 33 26" fill="none" xmlns="http://www.w3.org/2000/svg">
<path d="M7.16595 1.42835C7.31932 1.58155 7.44099 1.76347 7.524 1.96372C7.60701 2.16397 7.64974 2.37862 7.64974 2.59539C7.64974 2.81216 7.60701 3.02681 7.524 3.22706C7.44099 3.42731 7.31932 3.60923 7.16595 3.76243C4.69074 6.23806 3.30021 9.59549 3.30021 13.0963C3.30021 16.5971 4.69074 19.9545 7.16595 22.4301C7.3235 22.5823 7.44916 22.7643 7.53561 22.9655C7.62206 23.1668 7.66757 23.3832 7.66947 23.6023C7.67137 23.8213 7.62964 24.0385 7.5467 24.2412C7.46376 24.4439 7.34128 24.6281 7.1864 24.783C7.03152 24.9379 6.84735 25.0604 6.64463 25.1433C6.44191 25.2262 6.2247 25.268 6.00567 25.2661C5.78665 25.2642 5.5702 25.2187 5.36895 25.1322C5.1677 25.0458 4.98569 24.9201 4.83352 24.7625C-1.61117 18.3195 -1.61117 7.8714 4.83352 1.42835C5.14285 1.11911 5.56234 0.945391 5.99974 0.945391C6.43713 0.945391 6.85662 1.11911 7.16595 1.42835ZM28.1677 1.42835C34.6108 7.87305 34.6108 18.3195 28.1677 24.7625C27.8584 25.0721 27.4388 25.246 27.0013 25.2462C26.5637 25.2463 26.144 25.0727 25.8345 24.7634C25.5249 24.4541 25.351 24.0345 25.3508 23.5969C25.3507 23.1593 25.5243 22.7396 25.8336 22.4301C28.3089 19.9545 29.6994 16.5971 29.6994 13.0963C29.6994 9.59549 28.3089 6.23806 25.8336 3.76243C25.5241 3.45291 25.3502 3.03311 25.3502 2.59539C25.3502 2.15767 25.5241 1.73787 25.8336 1.42835C26.1432 1.11883 26.563 0.944946 27.0007 0.944946C27.4384 0.944946 27.8582 1.11883 28.1677 1.42835ZM12.0601 6.16909C12.3693 6.47842 12.5431 6.89791 12.5431 7.3353C12.5431 7.7727 12.3693 8.19218 12.0601 8.50152C11.4596 9.10196 10.9832 9.81481 10.6582 10.5994C10.3332 11.3839 10.166 12.2248 10.166 13.074C10.166 13.9232 10.3332 14.7641 10.6582 15.5486C10.9832 16.3332 11.4596 17.046 12.0601 17.6465C12.2132 17.7997 12.3347 17.9817 12.4176 18.1819C12.5004 18.3821 12.543 18.5966 12.5429 18.8133C12.5428 19.0299 12.5001 19.2445 12.4171 19.4446C12.3341 19.6448 12.2125 19.8266 12.0593 19.9797C11.906 20.1329 11.7241 20.2544 11.5239 20.3372C11.3237 20.42 11.1091 20.4626 10.8925 20.4626C10.6758 20.4625 10.4613 20.4197 10.2611 20.3368C10.061 20.2538 9.87917 20.1322 9.72602 19.9789C7.89476 18.1476 6.86598 15.6638 6.86598 13.074C6.86598 10.4842 7.89476 8.00041 9.72602 6.16909C9.87921 6.01572 10.0611 5.89405 10.2614 5.81104C10.4616 5.72803 10.6763 5.6853 10.8931 5.6853C11.1098 5.6853 11.3245 5.72803 11.5247 5.81104C11.725 5.89405 11.9069 6.01572 12.0601 6.16909ZM23.5375 6.16909C25.3688 8.00041 26.3975 10.4842 26.3975 13.074C26.3975 15.6638 25.3688 18.1476 23.5375 19.9789C23.2264 20.2794 22.8097 20.4457 22.3772 20.4419C21.9447 20.4381 21.531 20.2647 21.2252 19.9588C20.9193 19.653 20.7458 19.2393 20.7421 18.8068C20.7383 18.3743 20.9046 17.9576 21.2051 17.6465C21.8056 17.046 22.2819 16.3332 22.6069 15.5486C22.9319 14.7641 23.0992 13.9232 23.0992 13.074C23.0992 12.2248 22.9319 11.3839 22.6069 10.5994C22.2819 9.81481 21.8056 9.10196 21.2051 8.50152C20.9046 8.19041 20.7383 7.77374 20.7421 7.34124C20.7458 6.90874 20.9193 6.49502 21.2252 6.18918C21.531 5.88335 21.9447 5.70987 22.3772 5.70611C22.8097 5.70235 23.2264 5.86861 23.5375 6.16909ZM16.6326 10.7383C17.2888 10.7383 17.9181 10.999 18.3822 11.463C18.8462 11.927 19.1069 12.5563 19.1069 13.2126C19.1069 13.8688 18.8462 14.4981 18.3822 14.9622C17.9181 15.4262 17.2888 15.6869 16.6326 15.6869C15.9764 15.6869 15.347 15.4262 14.883 14.9622C14.419 14.4981 14.1583 13.8688 14.1583 13.2126C14.1583 12.5563 14.419 11.927 14.883 11.463C15.347 10.999 15.9764 10.7383 16.6326 10.7383Z" fill="#0080FF"/>
</svg>
