<svg width="37" height="34" viewBox="0 0 37 34" fill="none" xmlns="http://www.w3.org/2000/svg">
<path d="M9.31944 10.3808C8.83882 11.8321 8.59589 13.3515 8.60004 14.8804C8.60004 21.5084 13.0319 26.8807 18.5 26.8807M18.5 26.8807C23.9681 26.8807 28.4 21.5084 28.4 14.8804C28.4041 13.3515 28.1612 11.8321 27.6806 10.3808M18.5 26.8807C21.4997 26.8807 22.625 31.8307 22.625 31.8307M18.5 26.8807C15.5003 26.8807 14.375 31.8307 14.375 31.8307M29.258 5.81034C29.7398 8.55923 27.575 10.3808 27.575 10.3808C27.575 10.3808 24.93 9.45188 24.4482 6.70134C23.9664 3.95245 26.1312 2.13086 26.1312 2.13086C26.1312 2.13086 28.7762 3.05981 29.258 5.81034Z" stroke="#158AFF" stroke-width="3" stroke-linecap="round" stroke-linejoin="round"/>
<path d="M33.505 17.2118C31.3914 19.3007 28.5287 18.4658 28.5287 18.4658C28.5287 18.4658 27.7796 15.542 29.8948 13.4498C32.0068 11.3609 34.8712 12.1958 34.8712 12.1958C34.8712 12.1958 35.6203 15.1196 33.505 17.2118ZM27.9611 28.2436C25.4861 27.2949 25.1 24.6302 25.1 24.6302C25.1 24.6302 27.1905 22.9175 29.6655 23.8679C32.1405 24.8166 32.5249 27.4813 32.5249 27.4813C32.5249 27.4813 30.436 29.194 27.9611 28.2436ZM9.04059 28.2436C11.5156 27.2949 11.9 24.6302 11.9 24.6302C11.9 24.6302 9.80949 22.9175 7.3345 23.8679C4.85951 24.8166 4.47506 27.4813 4.47506 27.4813C4.47506 27.4813 6.5656 29.194 9.04059 28.2436ZM3.49497 17.2118C5.60861 19.3007 8.47134 18.4658 8.47134 18.4658C8.47134 18.4658 9.22044 15.542 7.10515 13.4498C4.99151 11.3626 2.12877 12.1958 2.12877 12.1958C2.12877 12.1958 1.37968 15.1196 3.49497 17.2118ZM7.74205 5.81034C7.26025 8.55923 9.42504 10.3808 9.42504 10.3808C9.42504 10.3808 12.07 9.45188 12.5518 6.70134C13.0336 3.95245 10.8688 2.13086 10.8688 2.13086C10.8688 2.13086 8.22384 3.05981 7.74205 5.81034Z" stroke="#158AFF" stroke-width="3" stroke-linecap="round" stroke-linejoin="round"/>
</svg>
