<svg width="31" height="30" viewBox="0 0 31 30" fill="none" xmlns="http://www.w3.org/2000/svg">
<path d="M30.0749 14.907C30.0749 14.5618 29.9052 14.2584 29.647 14.0681L29.6525 14.0587L26.0161 11.9594L28.1092 8.33391L28.1022 8.32962C28.1682 8.18017 28.1981 8.01729 28.1895 7.85415C28.1809 7.69101 28.134 7.53218 28.0527 7.3905C27.9706 7.24906 27.8563 7.12896 27.719 7.03992C27.5818 6.95089 27.4256 6.89543 27.263 6.87804V6.8679H23.0634V2.68047H23.0548C23.0373 2.51804 22.9817 2.36202 22.8927 2.22503C22.8037 2.08804 22.6837 1.97392 22.5424 1.89189C22.4006 1.81012 22.2414 1.76307 22.0779 1.7546C21.9144 1.74612 21.7512 1.77646 21.6017 1.84314L21.5966 1.83417L17.8991 3.96903L15.8516 0.42237L15.8441 0.42666C15.7477 0.29478 15.6216 0.187442 15.476 0.113322C15.3304 0.0392032 15.1694 0.000383069 15.006 0C14.6609 0 14.3571 0.16965 14.1671 0.42783L14.1578 0.42237L12.0764 4.02753L8.49225 1.95819L8.48796 1.9656C8.33851 1.89961 8.17563 1.86971 8.01249 1.87831C7.84935 1.88691 7.69052 1.93378 7.54884 2.01513C7.40733 2.09723 7.28715 2.21151 7.19804 2.34872C7.10894 2.48593 7.05342 2.64221 7.03599 2.80488H7.02546V6.96774H2.88678V6.97593C2.72435 6.9935 2.56833 7.04904 2.43134 7.13806C2.29435 7.22709 2.18023 7.3471 2.0982 7.48839C2.01679 7.6302 1.96992 7.78918 1.96138 7.95247C1.95284 8.11576 1.98288 8.27877 2.04906 8.42829L2.04009 8.43375L4.08603 11.9777L0.42237 14.093L0.42666 14.1005C0.29478 14.1969 0.187442 14.323 0.113323 14.4686C0.0392035 14.6142 0.000383069 14.7752 0 14.9386C0 15.2837 0.16965 15.5875 0.42783 15.7775L0.42237 15.7868L4.05873 17.8862L1.9656 21.5116L1.97262 21.5155C1.90663 21.665 1.87673 21.8278 1.88533 21.991C1.89393 22.1541 1.9408 22.313 2.02215 22.4546C2.10429 22.5961 2.2186 22.7162 2.3558 22.8052C2.49301 22.8943 2.64926 22.9497 2.8119 22.9671V22.9776H7.01103V27.1647H7.01961C7.05549 27.4829 7.23372 27.7809 7.53207 27.9533C7.674 28.0347 7.83315 28.0816 7.99658 28.0901C8.16002 28.0985 8.32315 28.0684 8.47275 28.002L8.47782 28.011L12.1754 25.8761L14.2229 29.4228L14.2303 29.4185C14.3268 29.5504 14.4529 29.6577 14.5985 29.7318C14.7441 29.8059 14.9051 29.8448 15.0684 29.8451C15.4136 29.8451 15.7174 29.6755 15.9073 29.4177L15.9163 29.4228L17.9977 25.8176L21.5822 27.8869L21.5865 27.8795C21.7359 27.9455 21.8988 27.9754 22.062 27.9668C22.2251 27.9582 22.3839 27.9114 22.5256 27.83C22.6671 27.7479 22.7873 27.6336 22.8764 27.4964C22.9655 27.3592 23.021 27.2029 23.0385 27.0403H23.049V22.8778H27.1881V22.8696C27.3505 22.852 27.5065 22.7965 27.6435 22.7075C27.7805 22.6184 27.8946 22.4984 27.9767 22.3571C28.0581 22.2153 28.105 22.0562 28.1136 21.8929C28.1221 21.7295 28.092 21.5664 28.0258 21.4169L28.0348 21.4118L25.9888 17.8678L29.6525 15.7525L29.6482 15.7451C29.7801 15.6486 29.8874 15.5225 29.9615 15.3769C30.0356 15.2313 30.0745 15.0703 30.0749 14.907ZM12.5861 19.351L8.74614 17.6545L10.4407 20.5893L9.48285 21.1423L6.88467 16.6429L7.86942 16.0739L11.5861 17.697L9.95397 14.8703L10.9122 14.3173L13.5096 18.8167L12.5861 19.351ZM14.4004 18.3035L11.8026 13.8037L14.9869 11.9656L15.4736 12.8088L13.2471 14.0938L13.7923 15.0384L15.9713 13.7807L16.458 14.623L14.2791 15.8816L14.8711 16.9069L17.0976 15.6218L17.5843 16.465L14.4004 18.3035ZM21.7737 14.0466L19.2005 11.4126L20.2016 14.9538L19.1833 15.5419L15.297 11.7866L16.3695 11.1673L19.0363 13.9628L18.0157 10.2168L18.7645 9.78471L21.4917 12.5455L20.4036 8.83818L21.4761 8.21886L22.7924 13.4589L21.7737 14.0466Z" fill="#0080FF"/>
</svg>
