<svg width="33" height="21" viewBox="0 0 33 21" fill="none" xmlns="http://www.w3.org/2000/svg">
<path d="M10.3425 3.65386C12.5881 1.76347 15.6184 0.130859 19.2503 0.130859C22.8821 0.130859 25.9125 1.76347 28.158 3.65386C30.3979 5.54425 31.9904 7.80126 32.7981 9.37086C33.0673 9.89787 33.0673 10.5223 32.7981 11.0493C31.9904 12.6189 30.3979 14.8759 28.158 16.7663C25.9125 18.6624 22.8821 20.295 19.2503 20.295C15.6184 20.295 12.5881 18.6624 10.3425 16.772C9.41453 15.9872 8.59536 15.1394 7.89649 14.3031L2.75806 17.2933C2.04201 17.7115 1.13118 17.5969 0.541152 17.0126C-0.0488783 16.4283 -0.169176 15.5232 0.243273 14.8014L2.8669 10.2129L0.243273 5.62445C-0.169176 4.90266 -0.0431498 3.99757 0.546881 3.41326C1.13691 2.82896 2.04201 2.71439 2.76379 3.13257L7.90222 6.12855C8.60109 5.2922 9.42026 4.44438 10.3483 3.65959L10.3425 3.65386ZM25.6661 10.2129C25.6661 9.72677 25.473 9.26051 25.1292 8.91674C24.7855 8.57296 24.3192 8.37983 23.833 8.37983C23.3469 8.37983 22.8806 8.57296 22.5368 8.91674C22.1931 9.26051 21.9999 9.72677 21.9999 10.2129C21.9999 10.6991 22.1931 11.1654 22.5368 11.5091C22.8806 11.8529 23.3469 12.046 23.833 12.046C24.3192 12.046 24.7855 11.8529 25.1292 11.5091C25.473 11.1654 25.6661 10.6991 25.6661 10.2129Z" fill="#158AFF"/>
</svg>
