<svg width="33" height="32" viewBox="0 0 33 32" fill="none" xmlns="http://www.w3.org/2000/svg">
<path d="M18.2953 1.13001C17.9641 0.44258 17.2642 0.00512695 16.4955 0.00512695C15.7268 0.00512695 15.0332 0.44258 14.6957 1.13001L10.6774 9.39787L1.70335 10.7227C0.953426 10.8352 0.328493 11.3602 0.0972674 12.0788C-0.133958 12.7975 0.0535219 13.5912 0.590964 14.1224L7.10277 20.5654L5.56543 29.6707C5.44044 30.4206 5.75291 31.183 6.3716 31.6267C6.99028 32.0704 7.80894 32.1267 8.48387 31.7705L16.5018 27.4897L24.5197 31.7705C25.1946 32.1267 26.0132 32.0767 26.6319 31.6267C27.2506 31.1768 27.5631 30.4206 27.4381 29.6707L25.8945 20.5654L32.4063 14.1224C32.9438 13.5912 33.1375 12.7975 32.9 12.0788C32.6625 11.3602 32.0438 10.8352 31.2939 10.7227L22.3136 9.39787L18.2953 1.13001Z" fill="#0080FF"/>
</svg>
