<svg width="37" height="34" viewBox="0 0 37 34" fill="none" xmlns="http://www.w3.org/2000/svg">
<path d="M14.375 13.6102C15.1334 13.6102 15.8843 13.4608 16.585 13.1706C17.2857 12.8803 17.9223 12.4549 18.4585 11.9187C18.9948 11.3824 19.4202 10.7458 19.7104 10.0451C20.0006 9.34449 20.15 8.59353 20.15 7.83515C20.15 7.07677 20.0006 6.32581 19.7104 5.62515C19.4202 4.9245 18.9948 4.28787 18.4585 3.75161C17.9223 3.21535 17.2857 2.78997 16.585 2.49975C15.8843 2.20952 15.1334 2.06015 14.375 2.06015C12.8434 2.06015 11.3745 2.66859 10.2915 3.75161C9.20844 4.83463 8.60001 6.30352 8.60001 7.83515C8.60001 9.36678 9.20844 10.8357 10.2915 11.9187C11.3745 13.0017 12.8434 13.6102 14.375 13.6102Z" fill="#0080FF" stroke="#0080FF" stroke-width="2.7" stroke-linecap="round" stroke-linejoin="round"/>
<path d="M25.6016 2.88515C26.4555 3.39872 27.1619 4.12448 27.6523 4.99186C28.1426 5.85925 28.4002 6.83875 28.4 7.83515C28.4002 8.83155 28.1426 9.81105 27.6523 10.6784C27.1619 11.5458 26.4555 12.2716 25.6016 12.7851" stroke="#0080FF" stroke-width="2.7" stroke-linecap="round" stroke-linejoin="round"/>
<path d="M2 30.7702V31.7602H26.75V30.7702C26.75 27.0742 26.75 25.2262 26.0306 23.8138C25.3978 22.5719 24.3882 21.5623 23.1464 20.9296C21.734 20.2102 19.886 20.2102 16.19 20.2102H12.56C8.864 20.2102 7.016 20.2102 5.6036 20.9296C4.36179 21.5623 3.35215 22.5719 2.7194 23.8138C2 25.2262 2 27.0742 2 30.7702Z" fill="#0080FF" stroke="#0080FF" stroke-width="2.7" stroke-linecap="round" stroke-linejoin="round"/>
<path d="M35 31.7602V30.7702C35 27.0742 35 25.2262 34.2806 23.8138C33.6478 22.5719 32.6382 21.5623 31.3964 20.9296" stroke="#0080FF" stroke-width="2.7" stroke-linecap="round" stroke-linejoin="round"/>
</svg>
