<svg width="33" height="33" viewBox="0 0 33 33" fill="none" xmlns="http://www.w3.org/2000/svg">
<path d="M31.8332 11.3094C33.8071 9.33547 32.907 7.02996 31.8332 5.90879L27.0958 1.17145C25.1062 -0.80244 22.8165 0.0976542 21.6953 1.17145L19.0108 3.87173H14.9209C11.9206 3.87173 10.1835 5.45085 9.29924 7.26683L2.28798 14.2781V20.5945L1.16681 21.6999C-0.807079 23.6896 0.0930155 25.9793 1.16681 27.1005L5.90415 31.8378C6.75687 32.6905 7.67276 33.0064 8.54127 33.0064C9.66244 33.0064 10.6889 32.4537 11.3047 31.8378L15.5683 27.5584H21.2373C23.9218 27.5584 25.2799 25.8846 25.7694 24.2423C27.5538 23.7686 28.5328 22.4105 28.9276 21.0841C31.3752 20.4524 32.2911 18.1311 32.2911 16.5046V11.7673H31.3595L31.8332 11.3094ZM29.1329 16.5046C29.1329 17.2152 28.8329 18.0838 27.5538 18.0838H25.9747V19.6629C25.9747 20.3735 25.6746 21.242 24.3956 21.242H22.8165V22.8211C22.8165 23.5317 22.5164 24.4002 21.2373 24.4002H14.2735L9.09396 29.5797C8.60443 30.0376 8.3202 29.7692 8.14649 29.5955L3.42494 24.8897C2.967 24.4002 3.23545 24.116 3.40915 23.9423L5.44621 21.8894V15.573L8.60443 12.4147V14.9255C8.60443 16.8363 9.86773 19.6629 13.3418 19.6629C16.8158 19.6629 18.0791 16.8363 18.0791 14.9255H29.1329V16.5046ZM29.5909 9.06702L26.9064 11.7673H14.9209V14.9255C14.9209 15.6361 14.6209 16.5046 13.3418 16.5046C12.0627 16.5046 11.7627 15.6361 11.7627 14.9255V10.1882C11.7627 9.46179 12.0311 7.02996 14.9209 7.02996H20.3057L23.906 3.42958C24.3956 2.97164 24.6798 3.24009 24.8535 3.41379L29.5751 8.11955C30.033 8.60907 29.7646 8.89331 29.5909 9.06702Z" fill="#0080FF"/>
</svg>
