<svg width="33" height="34" viewBox="0 0 33 34" fill="none" xmlns="http://www.w3.org/2000/svg">
<mask id="mask0_27_134" style="mask-type:luminance" maskUnits="userSpaceOnUse" x="0" y="0" width="33" height="34">
<path d="M0 0.127686H33V33.1277H0V0.127686Z" fill="white"/>
</mask>
<g mask="url(#mask0_27_134)">
<path fill-rule="evenodd" clip-rule="evenodd" d="M15.9019 0.247357C12.5606 1.64161 10.2135 3.80311 8.8605 6.51736L8.79244 6.65348C8.01937 8.27928 7.58167 10.0441 7.50544 11.8427C7.45319 12.8602 7.49306 13.8984 7.62506 14.9571L7.62919 14.9777L7.63331 15.0107C5.79033 15.6484 4.23265 16.918 3.23641 18.5946C2.24017 20.2711 1.86972 22.2462 2.19073 24.1698C2.51174 26.0934 3.50347 27.8412 4.99013 29.1034C6.47678 30.3655 8.36232 31.0606 10.3125 31.0652C11.6639 31.0671 12.995 30.7362 14.1882 30.1017C15.3813 29.4671 16.3999 28.5485 17.1538 27.427C17.2322 27.3115 17.3078 27.1925 17.3807 27.0702C18.8672 28.3186 20.7463 29.0029 22.6875 29.0027C23.8935 29.0014 25.0846 28.7356 26.1768 28.2242C27.269 27.7128 28.2358 26.9681 29.0091 26.0427C29.7824 25.1172 30.3434 24.0335 30.6526 22.8677C30.9618 21.702 31.0116 20.4827 30.7986 19.2956C30.5856 18.1086 30.1149 16.9827 29.4197 15.9972C28.7246 15.0117 27.8218 14.1906 26.7749 13.5917C25.7281 12.9929 24.5627 12.6308 23.3608 12.531C22.159 12.4312 20.9498 12.5962 19.8186 13.0142C19.2834 12.8425 18.7671 12.6165 18.2779 12.3398C17.9709 12.169 17.679 11.9723 17.4054 11.752C16.68 11.1826 16.1015 10.4478 15.7183 9.60905C15.0934 8.22717 14.9861 6.47611 15.6193 4.50023C15.8888 5.24686 16.2188 5.93092 16.6093 6.55242C17.0631 7.28254 17.5938 7.92811 18.2016 8.48911C18.9514 9.18594 19.8114 9.75392 20.7467 10.17C21.3668 10.4492 22.0138 10.6699 22.6875 10.8321C23.4069 11.0054 24.1396 11.1178 24.8779 11.1683C25.6217 11.2192 26.378 11.2192 27.1466 11.1683L27.1961 11.1642C27.8436 11.1183 28.4885 11.0419 29.1287 10.9352C29.3291 10.902 29.5211 10.8295 29.6935 10.722C29.866 10.6146 30.0155 10.4742 30.1337 10.3089C30.2519 10.1436 30.3363 9.95665 30.3822 9.75871C30.4282 9.56077 30.4346 9.35573 30.4012 9.15529C30.2812 8.43086 30.0969 7.71855 29.8506 7.02679C29.4173 5.80955 28.7401 4.69362 27.8603 3.74742C27.1303 2.98337 26.2803 2.34381 25.344 1.85404C22.8277 0.52167 19.7031 0.129795 16.5371 0.127732C16.32 0.122716 16.1022 0.163475 15.9019 0.247357ZM19.2142 4.88179C19.7732 5.80661 20.5647 6.56889 21.5098 7.09279L21.5511 7.11342C22.0199 7.37192 22.5321 7.58023 23.0876 7.73836C24.2138 8.06011 25.509 8.17561 26.9445 8.08073L26.8744 7.89304C26.4012 6.63971 25.5276 5.57759 24.3891 4.87148C24.2287 4.77101 24.065 4.67607 23.8982 4.58686C23.4304 4.34226 22.9425 4.13802 22.44 3.97636C21.3056 3.61336 20.0063 3.39061 18.5625 3.28954L18.4697 3.28336L18.5274 3.44836C18.7213 3.97911 18.9496 4.45692 19.2122 4.88179M12.1007 7.06392C12.1007 7.47642 12.1254 7.88479 12.1749 8.28904C12.2885 9.20917 12.5424 10.1065 12.9277 10.9497C13.2866 11.7265 13.7585 12.4459 14.3282 13.0844C14.7723 13.5862 15.2749 14.0393 15.8359 14.4435C16.1246 14.6498 16.4285 14.8444 16.7475 15.0272C16.3167 15.4734 15.9375 15.9667 15.6172 16.4978C14.2317 15.3338 12.5018 14.6576 10.6941 14.5735C10.6355 14.0982 10.5976 13.6207 10.5806 13.1421C10.5696 12.7357 10.5758 12.329 10.5992 11.9232C10.6622 10.5762 10.9887 9.25461 11.5603 8.03329L11.5768 8.00029C11.7309 7.67713 11.9059 7.36435 12.1007 7.06392ZM17.754 19.2471C18.4273 20.6534 18.6883 22.2216 18.5068 23.7702C19.1267 24.6285 19.9957 25.2751 20.9958 25.6223C21.996 25.9696 23.0788 26.0005 24.0971 25.7109C25.1155 25.4214 26.02 24.8254 26.6879 24.0039C27.3557 23.1824 27.7545 22.1752 27.83 21.1192C27.9056 20.0632 27.6542 19.0095 27.1101 18.1014C26.566 17.1932 25.7555 16.4745 24.7888 16.0429C23.822 15.6113 22.7459 15.4878 21.7065 15.6891C20.6671 15.8904 19.7148 16.4068 18.9791 17.1681L18.975 17.1722C18.41 17.7578 17.9916 18.4688 17.754 19.2471ZM15.4688 22.8915V22.8152C15.4587 21.4511 14.9084 20.1465 13.9384 19.1872C12.9684 18.2279 11.6578 17.6921 10.2936 17.6972C8.92935 17.7022 7.62274 18.2477 6.65988 19.2141C5.69702 20.1806 5.15639 21.4892 5.15639 22.8534C5.15639 24.2176 5.69702 25.5262 6.65988 26.4927C7.62274 27.4591 8.92935 28.0046 10.2936 28.0096C11.6578 28.0147 12.9684 27.4789 13.9384 26.5196C14.9084 25.5603 15.4587 24.2557 15.4688 22.8915Z" fill="#0080FF"/>
</g>
<circle cx="10" cy="23.1277" r="6" fill="#0080FF"/>
<circle cx="23" cy="21.1277" r="6" fill="#0080FF"/>
<ellipse cx="22.4828" cy="5.64388" rx="6.0281" ry="2.68291" transform="rotate(34.7225 22.4828 5.64388)" fill="#0080FF"/>
</svg>
