<svg width="33" height="29" viewBox="0 0 33 29" fill="none" xmlns="http://www.w3.org/2000/svg">
<path d="M18.5625 2.31352C18.5625 2.92402 18.2971 3.47265 17.875 3.85077V6.43852H24.75C25.844 6.43852 26.8932 6.87312 27.6668 7.64671C28.4404 8.4203 28.875 9.46951 28.875 10.5635V24.3135C28.875 25.4075 28.4404 26.4568 27.6668 27.2303C26.8932 28.0039 25.844 28.4385 24.75 28.4385H8.25C7.15598 28.4385 6.10677 28.0039 5.33318 27.2303C4.5596 26.4568 4.125 25.4075 4.125 24.3135V10.5635C4.125 9.46951 4.5596 8.4203 5.33318 7.64671C6.10677 6.87312 7.15598 6.43852 8.25 6.43852H15.125V3.85077C14.8686 3.62141 14.6736 3.33155 14.5578 3.00758C14.442 2.6836 14.4091 2.33582 14.4621 1.99588C14.5151 1.65594 14.6523 1.33466 14.8611 1.06128C15.07 0.787905 15.3439 0.571121 15.658 0.430671C15.9721 0.290221 16.3163 0.230566 16.6593 0.257138C17.0023 0.28371 17.3332 0.395665 17.6219 0.582809C17.9106 0.769953 18.1479 1.02634 18.3122 1.32862C18.4765 1.63091 18.5625 1.96948 18.5625 2.31352ZM0 13.3135H2.75V21.5635H0V13.3135ZM33 13.3135H30.25V21.5635H33V13.3135ZM12.375 19.501C12.922 19.501 13.4466 19.2837 13.8334 18.8969C14.2202 18.5101 14.4375 17.9855 14.4375 17.4385C14.4375 16.8915 14.2202 16.3669 13.8334 15.9801C13.4466 15.5933 12.922 15.376 12.375 15.376C11.828 15.376 11.3034 15.5933 10.9166 15.9801C10.5298 16.3669 10.3125 16.8915 10.3125 17.4385C10.3125 17.9855 10.5298 18.5101 10.9166 18.8969C11.3034 19.2837 11.828 19.501 12.375 19.501ZM22.6875 17.4385C22.6875 16.8915 22.4702 16.3669 22.0834 15.9801C21.6966 15.5933 21.172 15.376 20.625 15.376C20.078 15.376 19.5534 15.5933 19.1666 15.9801C18.7798 16.3669 18.5625 16.8915 18.5625 17.4385C18.5625 17.9855 18.7798 18.5101 19.1666 18.8969C19.5534 19.2837 20.078 19.501 20.625 19.501C21.172 19.501 21.6966 19.2837 22.0834 18.8969C22.4702 18.5101 22.6875 17.9855 22.6875 17.4385Z" fill="#158AFF"/>
</svg>
