<svg width="33" height="33" viewBox="0 0 33 33" fill="none" xmlns="http://www.w3.org/2000/svg">
<path d="M32.5149 7.03243H25.3738V0.354924C27.0308 0.77508 28.5545 1.60769 29.8031 2.77524C31.0517 3.94279 31.9846 5.40731 32.5149 7.03243ZM7.67267 0.354924V7.03243H0.453975C0.989845 5.39726 1.93403 3.92583 3.19721 2.75736C4.46038 1.58889 6.00078 0.761999 7.67267 0.354924ZM22.4615 0.00512695H10.5849V7.03243H22.4615V0.00512695ZM33 9.94466H0.00682756C-0.00227585 10.028 -0.00227585 10.1121 0.00682756 10.1955V22.8129C0.00680548 25.5089 1.07494 28.095 2.97739 30.0052C4.87985 31.9154 7.46163 32.994 10.1576 33.0049H22.7717C25.4733 33.0005 28.063 31.9253 29.9731 30.0148C31.8833 28.1044 32.9581 25.5145 32.962 22.8129V10.1955C32.9839 10.1135 32.9966 10.0294 33 9.94466ZM22.5589 21.7256C22.4064 22.0129 22.195 22.2648 21.9385 22.4648L16.114 26.5402C15.8052 26.7559 15.4437 26.8837 15.0679 26.9098H14.8732C14.5312 26.915 14.1932 26.8363 13.8886 26.6807C13.584 26.5251 13.3222 26.2973 13.1259 26.0172C12.9114 25.6955 12.7959 25.316 12.7959 24.9282V17.3218C12.7942 16.9423 12.9015 16.571 13.1077 16.2526C13.3222 15.9605 13.6011 15.7213 13.9228 15.5546C14.2528 15.4061 14.6092 15.3319 14.9706 15.3401C15.3187 15.3566 15.6586 15.4556 15.9606 15.6322L21.7801 19.145C22.0649 19.3095 22.3034 19.5434 22.4734 19.8251C22.6433 20.1067 22.7391 20.4267 22.7519 20.7554C22.7783 21.092 22.7107 21.4269 22.5572 21.7272" fill="#0080FF"/>
</svg>
