<svg width="28" height="34" viewBox="0 0 28 34" fill="none" xmlns="http://www.w3.org/2000/svg">
<path d="M14.1792 0.130859C17.8082 0.130859 21.2885 1.57245 23.8545 4.1385C26.4206 6.70454 27.8621 10.1848 27.8621 13.8138C27.8621 24.2772 19.0085 33.1309 14.1792 33.1309C9.34995 33.1309 0.496292 24.2772 0.496292 13.8138C0.496292 10.1848 1.93788 6.70454 4.50393 4.1385C7.06998 1.57245 10.5503 0.130859 14.1792 0.130859ZM23.0329 16.2284C22.0171 16.2284 21.0126 16.442 20.0847 16.8554C19.1569 17.2688 18.3263 17.8727 17.647 18.6279C16.9676 19.3831 16.4547 20.2728 16.1416 21.2391C15.8284 22.2054 15.722 23.2268 15.8292 24.237C16.0814 24.2638 16.3363 24.2772 16.5939 24.2772C17.6097 24.2772 18.6141 24.0636 19.542 23.6502C20.4699 23.2369 21.3004 22.6329 21.9798 21.8777C22.6591 21.1225 23.172 20.2328 23.4852 19.2665C23.7983 18.3002 23.9047 17.2788 23.7975 16.2687C23.5434 16.2431 23.2882 16.2297 23.0329 16.2284ZM5.32556 16.2284C5.068 16.2284 4.81312 16.2418 4.56093 16.2687C4.44685 17.343 4.57453 18.4293 4.93464 19.448C5.29475 20.4666 5.87815 21.3918 6.64212 22.1558C7.40609 22.9197 8.33128 23.5031 9.34992 23.8632C10.3686 24.2233 11.4548 24.351 12.5292 24.237C12.556 23.9848 12.5695 23.7299 12.5695 23.4723C12.5695 21.5511 11.8063 19.7086 10.4478 18.3501C9.08928 16.9916 7.24676 16.2284 5.32556 16.2284Z" fill="#158AFF"/>
</svg>
